<svg width="48" height="48" viewBox="0 0 48 48" fill="none" xmlns="http://www.w3.org/2000/svg">
<g clip-path="url(#clip0_12_2)">
<mask id="path-2-outside-1_12_2" maskUnits="userSpaceOnUse" x="3.6" y="9.98361" width="39" height="38" fill="black">
<rect fill="white" x="3.6" y="9.98361" width="39" height="38"/>
<path d="M22.8793 11.2851C28.3765 11.2851 33.1097 13.6351 37.079 18.3351C39.5038 21.7231 40.7161 25.3602 40.7161 29.2465C40.7161 31.3556 40.3009 33.4316 39.4705 35.4744C38.69 36.421 37.7931 36.8944 36.7801 36.8944C35.4681 36.8944 34.4716 36.1553 33.7907 34.6772C33.6744 34.1125 33.6163 33.7804 33.6163 33.6807C34.0979 31.8373 34.3387 30.4588 34.3387 29.5454V28.7233C34.3387 25.3519 32.8191 22.4206 29.7799 19.9295C27.7039 18.4182 25.52 17.6625 23.2281 17.6625H22.68C18.744 17.6625 15.547 19.4728 13.089 23.0933C11.9597 24.9367 11.395 26.9297 11.395 29.0721V29.1966C11.395 33.6807 13.5706 37.1186 17.9219 39.5101C19.5162 40.2408 21.0691 40.6062 22.5804 40.6062H23.3526C23.5686 40.6062 23.8426 40.5813 24.1747 40.5315C25.055 40.5315 25.9352 41.0546 26.8154 42.1009C27.0811 42.6988 27.214 43.1887 27.214 43.5707V43.8696C27.214 45.3145 26.3421 46.311 24.5982 46.859C23.7678 46.9421 23.1949 46.9836 22.8793 46.9836C17.6146 46.9836 13.0309 44.8163 9.12805 40.4816C6.38776 36.9442 5.01762 33.1576 5.01762 29.1219C5.01762 24.3388 6.886 20.0208 10.6228 16.1678C14.3263 12.9127 18.4118 11.2851 22.8793 11.2851ZM32.4205 37.1435C33.799 37.1435 34.812 37.9739 35.4597 39.6346L35.5345 40.3571C35.5345 41.802 34.6958 42.815 33.0184 43.3963C32.6696 43.4461 32.4537 43.4877 32.3707 43.5209C31.0421 43.5209 30.0456 42.7818 29.3813 41.3037C29.265 40.9882 29.2069 40.6892 29.2069 40.4069V40.1827C29.2069 38.771 30.0622 37.7746 31.7728 37.1933C32.0385 37.1601 32.2544 37.1435 32.4205 37.1435Z"/>
</mask>
<path d="M22.8793 11.2851C28.3765 11.2851 33.1097 13.6351 37.079 18.3351C39.5038 21.7231 40.7161 25.3602 40.7161 29.2465C40.7161 31.3556 40.3009 33.4316 39.4705 35.4744C38.69 36.421 37.7931 36.8944 36.7801 36.8944C35.4681 36.8944 34.4716 36.1553 33.7907 34.6772C33.6744 34.1125 33.6163 33.7804 33.6163 33.6807C34.0979 31.8373 34.3387 30.4588 34.3387 29.5454V28.7233C34.3387 25.3519 32.8191 22.4206 29.7799 19.9295C27.7039 18.4182 25.52 17.6625 23.2281 17.6625H22.68C18.744 17.6625 15.547 19.4728 13.089 23.0933C11.9597 24.9367 11.395 26.9297 11.395 29.0721V29.1966C11.395 33.6807 13.5706 37.1186 17.9219 39.5101C19.5162 40.2408 21.0691 40.6062 22.5804 40.6062H23.3526C23.5686 40.6062 23.8426 40.5813 24.1747 40.5315C25.055 40.5315 25.9352 41.0546 26.8154 42.1009C27.0811 42.6988 27.214 43.1887 27.214 43.5707V43.8696C27.214 45.3145 26.3421 46.311 24.5982 46.859C23.7678 46.9421 23.1949 46.9836 22.8793 46.9836C17.6146 46.9836 13.0309 44.8163 9.12805 40.4816C6.38776 36.9442 5.01762 33.1576 5.01762 29.1219C5.01762 24.3388 6.886 20.0208 10.6228 16.1678C14.3263 12.9127 18.4118 11.2851 22.8793 11.2851ZM32.4205 37.1435C33.799 37.1435 34.812 37.9739 35.4597 39.6346L35.5345 40.3571C35.5345 41.802 34.6958 42.815 33.0184 43.3963C32.6696 43.4461 32.4537 43.4877 32.3707 43.5209C31.0421 43.5209 30.0456 42.7818 29.3813 41.3037C29.265 40.9882 29.2069 40.6892 29.2069 40.4069V40.1827C29.2069 38.771 30.0622 37.7746 31.7728 37.1933C32.0385 37.1601 32.2544 37.1435 32.4205 37.1435Z" fill="#006FFF"/>
<path d="M37.079 18.3351L37.8922 17.7531L37.8689 17.7205L37.843 17.6899L37.079 18.3351ZM39.4705 35.4744L40.2421 36.1106L40.3393 35.9926L40.3969 35.851L39.4705 35.4744ZM33.7907 34.6772L32.8112 34.8789L32.8344 34.9913L32.8824 35.0956L33.7907 34.6772ZM33.6163 33.6807L32.6488 33.428L32.6163 33.5523V33.6807H33.6163ZM29.7799 19.9295L30.4138 19.1561L30.3916 19.1379L30.3684 19.121L29.7799 19.9295ZM13.089 23.0933L12.2617 22.5316L12.2485 22.5509L12.2363 22.5709L13.089 23.0933ZM17.9219 39.5101L17.4402 40.3864L17.4721 40.404L17.5052 40.4192L17.9219 39.5101ZM24.1747 40.5315V39.5315H24.1002L24.0264 39.5425L24.1747 40.5315ZM26.8154 42.1009L27.7292 41.6948L27.6717 41.5654L27.5806 41.4571L26.8154 42.1009ZM24.5982 46.859L24.6977 47.8541L24.8 47.8439L24.8981 47.813L24.5982 46.859ZM9.12805 40.4816L8.3375 41.094L8.36015 41.1233L8.3849 41.1508L9.12805 40.4816ZM10.6228 16.1678L9.96258 15.4167L9.93265 15.443L9.9049 15.4716L10.6228 16.1678ZM35.4597 39.6346L36.4544 39.5317L36.4405 39.3973L36.3914 39.2713L35.4597 39.6346ZM35.5345 40.3571H36.5345V40.3055L36.5292 40.2542L35.5345 40.3571ZM33.0184 43.3963L33.1598 44.3863L33.255 44.3727L33.3458 44.3412L33.0184 43.3963ZM32.3707 43.5209V44.5209H32.5633L32.7421 44.4494L32.3707 43.5209ZM29.3813 41.3037L28.4429 41.6494L28.4549 41.682L28.4692 41.7137L29.3813 41.3037ZM31.7728 37.1933L31.6488 36.201L31.5476 36.2137L31.4511 36.2465L31.7728 37.1933ZM22.8793 11.2851V12.2851C28.0448 12.2851 32.5103 14.4752 36.315 18.9803L37.079 18.3351L37.843 17.6899C33.7092 12.795 28.7083 10.2851 22.8793 10.2851V11.2851ZM37.079 18.3351L36.2658 18.9171C38.5783 22.1483 39.7161 25.5843 39.7161 29.2465H40.7161H41.7161C41.7161 25.1361 40.4292 21.2979 37.8922 17.7531L37.079 18.3351ZM40.7161 29.2465H39.7161C39.7161 31.2207 39.3282 33.1691 38.5442 35.0978L39.4705 35.4744L40.3969 35.851C41.2737 33.6941 41.7161 31.4906 41.7161 29.2465H40.7161ZM39.4705 35.4744L38.699 34.8382C38.0642 35.6081 37.4314 35.8944 36.7801 35.8944V36.8944V37.8944C38.1549 37.8944 39.3157 37.234 40.2421 36.1106L39.4705 35.4744ZM36.7801 36.8944V35.8944C36.3254 35.8944 35.9601 35.771 35.6444 35.5369C35.3166 35.2937 34.9903 34.8914 34.6989 34.2588L33.7907 34.6772L32.8824 35.0956C33.2719 35.9411 33.7844 36.6474 34.453 37.1433C35.1338 37.6482 35.9227 37.8944 36.7801 37.8944V36.8944ZM33.7907 34.6772L34.7701 34.4756C34.7128 34.1972 34.6715 33.9841 34.6449 33.8322C34.6316 33.756 34.6231 33.7016 34.6182 33.6657C34.6117 33.6167 34.6163 33.6339 34.6163 33.6807H33.6163H32.6163C32.6163 33.8343 32.6497 34.0331 32.6748 34.177C32.7064 34.3573 32.7523 34.5926 32.8112 34.8789L33.7907 34.6772ZM33.6163 33.6807L34.5838 33.9335C35.0689 32.0766 35.3387 30.5942 35.3387 29.5454H34.3387H33.3387C33.3387 30.3235 33.1269 31.598 32.6488 33.428L33.6163 33.6807ZM34.3387 29.5454H35.3387V28.7233H34.3387H33.3387V29.5454H34.3387ZM34.3387 28.7233H35.3387C35.3387 25.001 33.6419 21.8021 30.4138 19.1561L29.7799 19.9295L29.1459 20.7029C31.9963 23.0392 33.3387 25.7029 33.3387 28.7233H34.3387ZM29.7799 19.9295L30.3684 19.121C28.143 17.5009 25.7566 16.6625 23.2281 16.6625V17.6625V18.6625C25.2833 18.6625 27.2648 19.3354 29.1913 20.7379L29.7799 19.9295ZM23.2281 17.6625V16.6625H22.68V17.6625V18.6625H23.2281V17.6625ZM22.68 17.6625V16.6625C18.3714 16.6625 14.8814 18.6728 12.2617 22.5316L13.089 23.0933L13.9164 23.6549C16.2126 20.2727 19.1165 18.6625 22.68 18.6625V17.6625ZM13.089 23.0933L12.2363 22.5709C11.0116 24.5701 10.395 26.7435 10.395 29.0721H11.395H12.395C12.395 27.1158 12.9078 25.3034 13.9417 23.6156L13.089 23.0933ZM11.395 29.0721H10.395V29.1966H11.395H12.395V29.0721H11.395ZM11.395 29.1966H10.395C10.395 34.091 12.8112 37.8422 17.4402 40.3864L17.9219 39.5101L18.4036 38.6337C14.3301 36.3949 12.395 33.2705 12.395 29.1966H11.395ZM17.9219 39.5101L17.5052 40.4192C19.2095 41.2003 20.904 41.6062 22.5804 41.6062V40.6062V39.6062C21.2342 39.6062 19.823 39.2814 18.3385 38.601L17.9219 39.5101ZM22.5804 40.6062V41.6062H23.3526V40.6062V39.6062H22.5804V40.6062ZM23.3526 40.6062V41.6062C23.6375 41.6062 23.9656 41.574 24.3231 41.5204L24.1747 40.5315L24.0264 39.5425C23.7196 39.5886 23.4996 39.6062 23.3526 39.6062V40.6062ZM24.1747 40.5315V41.5315C24.6281 41.5315 25.2546 41.799 26.0502 42.7447L26.8154 42.1009L27.5806 41.4571C26.6157 40.3102 25.4818 39.5315 24.1747 39.5315V40.5315ZM26.8154 42.1009L25.9016 42.507C26.1453 43.0555 26.214 43.3946 26.214 43.5707H27.214H28.214C28.214 42.9829 28.0169 42.3421 27.7292 41.6948L26.8154 42.1009ZM27.214 43.5707H26.214V43.8696H27.214H28.214V43.5707H27.214ZM27.214 43.8696H26.214C26.214 44.3737 26.0689 44.7434 25.8075 45.0421C25.53 45.3592 25.0591 45.666 24.2984 45.9051L24.5982 46.859L24.8981 47.813C25.8812 47.5041 26.7181 47.0386 27.3126 46.3592C27.9231 45.6614 28.214 44.8105 28.214 43.8696H27.214ZM24.5982 46.859L24.4987 45.864C23.6648 45.9474 23.1384 45.9836 22.8793 45.9836V46.9836V47.9836C23.2514 47.9836 23.8709 47.9368 24.6977 47.8541L24.5982 46.859ZM22.8793 46.9836V45.9836C17.9305 45.9836 13.6072 43.9619 9.8712 39.8125L9.12805 40.4816L8.3849 41.1508C12.4546 45.6707 17.2988 47.9836 22.8793 47.9836V46.9836ZM9.12805 40.4816L9.9186 39.8692C7.29847 36.4869 6.01762 32.9117 6.01762 29.1219H5.01762H4.01762C4.01762 33.4035 5.47705 37.4015 8.3375 41.094L9.12805 40.4816ZM5.01762 29.1219H6.01762C6.01762 24.6313 7.76076 20.5552 11.3406 16.864L10.6228 16.1678L9.9049 15.4716C6.01123 19.4864 4.01762 24.0463 4.01762 29.1219H5.01762ZM10.6228 16.1678L11.2829 16.9189C14.8243 13.8063 18.6806 12.2851 22.8793 12.2851V11.2851V10.2851C18.143 10.2851 13.8283 12.019 9.96258 15.4167L10.6228 16.1678ZM32.4205 37.1435V38.1435C32.8917 38.1435 33.2623 38.2791 33.5802 38.5397C33.9146 38.8137 34.2451 39.2723 34.5281 39.998L35.4597 39.6346L36.3914 39.2713C36.0267 38.3362 35.5268 37.5492 34.8481 36.9929C34.1529 36.4231 33.3278 36.1435 32.4205 36.1435V37.1435ZM35.4597 39.6346L34.4651 39.7375L34.5398 40.46L35.5345 40.3571L36.5292 40.2542L36.4544 39.5317L35.4597 39.6346ZM35.5345 40.3571H34.5345C34.5345 40.8712 34.3911 41.2537 34.1352 41.5629C33.8666 41.8873 33.4152 42.2005 32.691 42.4514L33.0184 43.3963L33.3458 44.3412C34.299 44.0109 35.1057 43.5269 35.6758 42.8383C36.2585 42.1343 36.5345 41.2878 36.5345 40.3571H35.5345ZM33.0184 43.3963L32.877 42.4064C32.6949 42.4324 32.5362 42.4578 32.4061 42.4828C32.2998 42.5033 32.1393 42.5364 31.9993 42.5924L32.3707 43.5209L32.7421 44.4494C32.7015 44.4656 32.6804 44.4695 32.7004 44.4645C32.7143 44.4611 32.7409 44.4551 32.7837 44.4468C32.8695 44.4303 32.9931 44.4101 33.1598 44.3863L33.0184 43.3963ZM32.3707 43.5209V42.5209C31.9048 42.5209 31.536 42.3958 31.2226 42.1634C30.8975 41.9223 30.5763 41.5232 30.2934 40.8938L29.3813 41.3037L28.4692 41.7137C28.8506 42.5623 29.3598 43.2719 30.0312 43.7698C30.7143 44.2764 31.508 44.5209 32.3707 44.5209V43.5209ZM29.3813 41.3037L30.3196 40.958C30.2366 40.7325 30.2069 40.5511 30.2069 40.4069H29.2069H28.2069C28.2069 40.8274 28.2935 41.2438 28.4429 41.6494L29.3813 41.3037ZM29.2069 40.4069H30.2069V40.1827H29.2069H28.2069V40.4069H29.2069ZM29.2069 40.1827H30.2069C30.2069 39.6965 30.3473 39.3307 30.6072 39.0279C30.8824 38.7073 31.3477 38.3939 32.0946 38.1401L31.7728 37.1933L31.4511 36.2465C30.4873 36.574 29.6697 37.0495 29.0896 37.7253C28.4941 38.419 28.2069 39.2573 28.2069 40.1827H29.2069ZM31.7728 37.1933L31.8968 38.1856C32.143 38.1548 32.3131 38.1435 32.4205 38.1435V37.1435V36.1435C32.1958 36.1435 31.934 36.1654 31.6488 36.201L31.7728 37.1933Z" fill="#1E1E1E" mask="url(#path-2-outside-1_12_2)"/>
<mask id="path-4-outside-2_12_2" maskUnits="userSpaceOnUse" x="5.39727" y="-0.800001" width="37" height="41" fill="black">
<rect fill="white" x="5.39727" y="-0.800001" width="37" height="41"/>
<path d="M9.99798 0.809101C10.4451 0.844872 10.7671 0.90747 10.9638 0.996897C12.5914 1.65866 13.4051 2.71389 13.4051 4.1626V4.3504C13.4051 4.63657 13.3425 4.9585 13.2173 5.31621C12.5019 6.89012 11.4467 7.67707 10.0516 7.67707C9.60451 7.6413 9.28257 7.5787 9.08583 7.48928C7.42249 6.86329 6.59083 5.817 6.59083 4.3504C6.59083 3.90327 6.65342 3.51873 6.77862 3.19679C7.49404 1.605 8.56716 0.809101 9.99798 0.809101ZM37.8455 0.862757C38.2568 0.916413 38.6593 1.00584 39.0527 1.13104C40.5551 1.88222 41.3063 2.95534 41.3063 4.3504C41.2705 4.65445 41.2079 4.93167 41.1185 5.18207C41.1185 5.41458 36.6382 15.5556 27.6777 35.605C26.9265 38.0017 25.6655 39.2 23.8949 39.2C23.0006 39.2 22.0974 38.726 21.1853 37.7781C20.8454 37.1879 18.5293 32.0459 14.2368 22.352C12.484 18.6318 11.6077 16.4677 11.6077 15.8596V15.6718C11.6077 15.3678 11.6703 15.0458 11.7955 14.706C12.493 13.1142 13.5661 12.3183 15.0148 12.3183C15.927 12.3183 16.8034 12.7476 17.644 13.6061C17.9301 13.9459 19.987 18.4709 23.8144 27.181H23.9486C24.0738 26.9843 27.4451 19.4546 34.0627 4.59185C34.8497 2.10579 36.1106 0.862757 37.8455 0.862757Z"/>
</mask>
<path d="M9.99798 0.809101C10.4451 0.844872 10.7671 0.90747 10.9638 0.996897C12.5914 1.65866 13.4051 2.71389 13.4051 4.1626V4.3504C13.4051 4.63657 13.3425 4.9585 13.2173 5.31621C12.5019 6.89012 11.4467 7.67707 10.0516 7.67707C9.60451 7.6413 9.28257 7.5787 9.08583 7.48928C7.42249 6.86329 6.59083 5.817 6.59083 4.3504C6.59083 3.90327 6.65342 3.51873 6.77862 3.19679C7.49404 1.605 8.56716 0.809101 9.99798 0.809101ZM37.8455 0.862757C38.2568 0.916413 38.6593 1.00584 39.0527 1.13104C40.5551 1.88222 41.3063 2.95534 41.3063 4.3504C41.2705 4.65445 41.2079 4.93167 41.1185 5.18207C41.1185 5.41458 36.6382 15.5556 27.6777 35.605C26.9265 38.0017 25.6655 39.2 23.8949 39.2C23.0006 39.2 22.0974 38.726 21.1853 37.7781C20.8454 37.1879 18.5293 32.0459 14.2368 22.352C12.484 18.6318 11.6077 16.4677 11.6077 15.8596V15.6718C11.6077 15.3678 11.6703 15.0458 11.7955 14.706C12.493 13.1142 13.5661 12.3183 15.0148 12.3183C15.927 12.3183 16.8034 12.7476 17.644 13.6061C17.9301 13.9459 19.987 18.4709 23.8144 27.181H23.9486C24.0738 26.9843 27.4451 19.4546 34.0627 4.59185C34.8497 2.10579 36.1106 0.862757 37.8455 0.862757Z" fill="#F7FF00"/>
<path d="M9.99798 0.809099L10.0777 -0.187716L10.0379 -0.190901H9.99798V0.809099ZM10.9638 0.996897L10.55 1.90726L10.5684 1.91563L10.5871 1.92325L10.9638 0.996897ZM13.2173 5.31621L14.1277 5.73001L14.1463 5.68904L14.1612 5.64656L13.2173 5.31621ZM10.0516 7.67707L9.9719 8.67389L10.0117 8.67707H10.0516V7.67707ZM9.08583 7.48928L9.49963 6.57891L9.46927 6.56511L9.43806 6.55336L9.08583 7.48928ZM6.77862 3.19679L5.86651 2.78686L5.85595 2.81035L5.84662 2.83435L6.77862 3.19679ZM37.8455 0.862757L37.9748 -0.128843L37.9104 -0.137243H37.8455V0.862757ZM39.0527 1.13104L39.4999 0.236609L39.4302 0.201746L39.3559 0.17811L39.0527 1.13104ZM41.3063 4.3504L42.2994 4.46724L42.3063 4.40902V4.3504H41.3063ZM41.1185 5.18207L40.1767 4.84573L40.1185 5.00886V5.18207H41.1185ZM27.6777 35.605L26.7647 35.197L26.7409 35.2503L26.7234 35.306L27.6777 35.605ZM21.1853 37.7781L20.3186 38.2771L20.3798 38.3832L20.4647 38.4715L21.1853 37.7781ZM14.2368 22.352L15.1512 21.9471L15.1464 21.9364L15.1414 21.9258L14.2368 22.352ZM11.7955 14.706L10.8795 14.3047L10.8675 14.3321L10.8571 14.3603L11.7955 14.706ZM17.644 13.6061L18.4089 12.9619L18.3847 12.9332L18.3585 12.9064L17.644 13.6061ZM23.8144 27.181L22.8989 27.5833L23.1616 28.181H23.8144V27.181ZM23.9486 27.181V28.181H24.4975L24.7922 27.7179L23.9486 27.181ZM34.0627 4.59185L34.9763 4.9986L34.9991 4.94724L35.0161 4.89364L34.0627 4.59185ZM9.99798 0.809099L9.91824 1.80592C10.117 1.82182 10.2702 1.84239 10.3839 1.86449C10.4401 1.87542 10.4819 1.88582 10.5115 1.89449C10.5417 1.90335 10.5528 1.90856 10.55 1.90726L10.9638 0.996897L11.3776 0.0865307C11.0132 -0.0791149 10.5435 -0.150454 10.0777 -0.187716L9.99798 0.809099ZM10.9638 0.996897L10.5871 1.92325C11.2877 2.20811 11.7332 2.54558 12.0029 2.89533C12.2629 3.23243 12.4051 3.63875 12.4051 4.1626H13.4051H14.4051C14.4051 3.23775 14.1405 2.3921 13.5867 1.67396C13.0426 0.968466 12.2674 0.447447 11.3404 0.0705433L10.9638 0.996897ZM13.4051 4.1626H12.4051V4.3504H13.4051H14.4051V4.1626H13.4051ZM13.4051 4.3504H12.4051C12.4051 4.49425 12.3729 4.70195 12.2735 4.98586L13.2173 5.31621L14.1612 5.64656C14.3122 5.21505 14.4051 4.77888 14.4051 4.3504H13.4051ZM13.2173 5.31621L12.307 4.90241C11.9979 5.58238 11.6481 6.01931 11.2915 6.28523C10.9473 6.54194 10.5475 6.67707 10.0516 6.67707V7.67707V8.67707C10.9509 8.67707 11.7762 8.41873 12.4872 7.88848C13.1858 7.36745 13.7214 6.62395 14.1277 5.73001L13.2173 5.31621ZM10.0516 7.67707L10.1314 6.68026C9.9326 6.66436 9.7794 6.64379 9.66571 6.62168C9.60951 6.61075 9.56771 6.60036 9.53813 6.59169C9.5079 6.58283 9.49679 6.57762 9.49963 6.57891L9.08583 7.48928L8.67203 8.39964C9.03645 8.56529 9.50616 8.63663 9.9719 8.67389L10.0516 7.67707ZM9.08583 7.48928L9.43806 6.55336C8.72147 6.28368 8.26945 5.95508 7.9974 5.61283C7.73609 5.28407 7.59083 4.88109 7.59083 4.3504H6.59083H5.59083C5.59083 5.2863 5.8614 6.13977 6.43175 6.85731C6.99138 7.56135 7.78686 8.06889 8.73361 8.42519L9.08583 7.48928ZM6.59083 4.3504H7.59083C7.59083 3.99251 7.64144 3.73714 7.71063 3.55924L6.77862 3.19679L5.84662 2.83435C5.66541 3.30032 5.59083 3.81402 5.59083 4.3504H6.59083ZM6.77862 3.19679L7.69074 3.60673C7.99918 2.92043 8.35229 2.47878 8.71573 2.20923C9.06743 1.94838 9.48095 1.8091 9.99798 1.8091V0.809099V-0.190901C9.08419 -0.190901 8.24574 0.06777 7.52432 0.602823C6.81463 1.12917 6.27347 1.88136 5.86651 2.78686L6.77862 3.19679ZM37.8455 0.862757L37.7161 1.85436C38.0688 1.90035 38.413 1.97689 38.7495 2.08396L39.0527 1.13104L39.3559 0.17811C38.9055 0.0347919 38.4449 -0.0675297 37.9748 -0.128843L37.8455 0.862757ZM39.0527 1.13104L38.6055 2.02547C39.2489 2.34714 39.6666 2.70555 39.9237 3.07273C40.1738 3.43002 40.3063 3.84395 40.3063 4.3504H41.3063H42.3063C42.3063 3.46179 42.0632 2.64163 41.5621 1.9258C41.068 1.21986 40.359 0.666121 39.4999 0.236609L39.0527 1.13104ZM41.3063 4.3504L40.3131 4.23356C40.2849 4.47376 40.2373 4.67607 40.1767 4.84573L41.1185 5.18207L42.0602 5.5184C42.1785 5.18728 42.2562 4.83515 42.2994 4.46724L41.3063 4.3504ZM41.1185 5.18207H40.1185C40.1185 5.09735 40.1297 5.03286 40.1336 5.01148C40.1388 4.98252 40.1442 4.96074 40.147 4.95018C40.1524 4.92914 40.1565 4.91723 40.1554 4.9206C40.1537 4.92568 40.1469 4.94543 40.1314 4.98599C40.1015 5.06464 40.0532 5.18501 39.9843 5.35171C39.8474 5.68298 39.6399 6.17073 39.3604 6.81779C38.8021 8.11055 37.9634 10.0235 36.8436 12.5581C34.6043 17.6266 31.2448 25.1726 26.7647 35.197L27.6777 35.605L28.5906 36.0131C33.071 25.988 36.432 18.4388 38.673 13.3663C39.7933 10.8304 40.6347 8.91141 41.1965 7.61079C41.477 6.96116 41.6896 6.46186 41.8326 6.11574C41.9037 5.94372 41.9605 5.8028 42.0006 5.69757C42.0201 5.64619 42.0395 5.59334 42.0553 5.54519C42.063 5.52194 42.0736 5.48825 42.0834 5.45027C42.0855 5.44242 42.1185 5.32596 42.1185 5.18207H41.1185ZM27.6777 35.605L26.7234 35.306C26.3775 36.4095 25.9443 37.1349 25.4797 37.5764C25.0388 37.9954 24.5289 38.2 23.8949 38.2V39.2V40.2C25.0315 40.2 26.0375 39.8054 26.8575 39.0261C27.6538 38.2693 28.2266 37.1972 28.6319 35.9041L27.6777 35.605ZM23.8949 39.2V38.2C23.3785 38.2 22.7184 37.9292 21.9058 37.0847L21.1853 37.7781L20.4647 38.4715C21.4764 39.5229 22.6227 40.2 23.8949 40.2V39.2ZM21.1853 37.7781L22.0519 37.2792C21.9142 37.0401 21.2793 35.675 20.1051 33.0682C18.9483 30.5001 17.2972 26.7935 15.1512 21.9471L14.2368 22.352L13.3224 22.7569C15.4689 27.6044 17.1221 31.3157 18.2815 33.8896C19.4235 36.4249 20.1165 37.9259 20.3186 38.2771L21.1853 37.7781ZM14.2368 22.352L15.1414 21.9258C14.268 20.0719 13.6198 18.6202 13.1918 17.5634C12.9775 17.0341 12.8239 16.6173 12.7255 16.306C12.6158 15.9591 12.6077 15.8416 12.6077 15.8596H11.6077H10.6077C10.6077 16.1817 10.7091 16.5627 10.8185 16.9089C10.9392 17.2907 11.1143 17.7614 11.3381 18.3141C11.7865 19.4215 12.4529 20.9119 13.3322 22.7782L14.2368 22.352ZM11.6077 15.8596H12.6077V15.6718H11.6077H10.6077V15.8596H11.6077ZM11.6077 15.6718H12.6077C12.6077 15.5059 12.6418 15.3015 12.7338 15.0517L11.7955 14.706L10.8571 14.3603C10.6987 14.7902 10.6077 15.2297 10.6077 15.6718H11.6077ZM11.7955 14.706L12.7114 15.1074C13.0107 14.4243 13.3585 13.9859 13.7192 13.7184C14.0686 13.4593 14.4859 13.3183 15.0148 13.3183V12.3183V11.3183C14.0951 11.3183 13.2514 11.5753 12.5277 12.112C11.8153 12.6404 11.2777 13.396 10.8795 14.3047L11.7955 14.706ZM15.0148 12.3183V13.3183C15.5807 13.3183 16.2148 13.5759 16.9295 14.3057L17.644 13.6061L18.3585 12.9064C17.3919 11.9193 16.2733 11.3183 15.0148 11.3183V12.3183ZM17.644 13.6061L16.8791 14.2502C16.8309 14.193 16.8434 14.194 16.9492 14.3951C17.0323 14.5531 17.1452 14.7797 17.2896 15.0796C17.5777 15.6776 17.9776 16.5394 18.4908 17.6685C19.5166 19.9251 20.9856 23.2293 22.8989 27.5833L23.8144 27.181L24.7299 26.7787C22.8157 22.4226 21.3426 19.1092 20.3116 16.8409C19.7964 15.7075 19.3892 14.8299 19.0915 14.2117C18.9431 13.9035 18.8185 13.6527 18.7194 13.4643C18.6429 13.3189 18.5286 13.1041 18.4089 12.9619L17.644 13.6061ZM23.8144 27.181V28.181H23.9486V27.181V26.181H23.8144V27.181ZM23.9486 27.181L24.7922 27.7179C24.8415 27.6405 24.894 27.5278 24.9127 27.4887C24.9486 27.4134 24.9965 27.3107 25.0557 27.1825C25.1743 26.9254 25.3433 26.5544 25.5622 26.0708C26.0001 25.1032 26.6407 23.6776 27.4837 21.7948C29.1698 18.029 31.6674 12.4301 34.9763 4.9986L34.0627 4.59185L33.1492 4.1851C29.8405 11.6163 27.3436 17.2137 25.6583 20.9775C24.8156 22.8597 24.1763 24.2823 23.7401 25.2463C23.5218 25.7285 23.3552 26.0942 23.2397 26.3445C23.1817 26.4701 23.1379 26.5639 23.1075 26.6278C23.0597 26.7278 23.0713 26.697 23.1049 26.6442L23.9486 27.181ZM34.0627 4.59185L35.0161 4.89364C35.3819 3.73789 35.828 2.97311 36.3007 2.50717C36.7483 2.06586 37.2468 1.86276 37.8455 1.86276V0.862757V-0.137243C36.7093 -0.137243 35.7098 0.281168 34.8966 1.08289C34.1083 1.85998 33.5305 2.95975 33.1093 4.29006L34.0627 4.59185Z" fill="#1E1E1E" mask="url(#path-4-outside-2_12_2)"/>
</g>
<defs>
<clipPath id="clip0_12_2">
<rect width="48" height="48" rx="3.6" fill="white"/>
</clipPath>
</defs>
</svg>
