<svg width="211" height="63" viewBox="0 0 211 63" fill="none" xmlns="http://www.w3.org/2000/svg">
<g clip-path="url(#clip0_29_47)">
<mask id="path-2-outside-1_29_47" maskUnits="userSpaceOnUse" x="4.46249" y="11.168" width="45" height="46" fill="black">
<rect fill="white" x="4.46249" y="11.168" width="45" height="46"/>
<path d="M27.0129 12.7761C33.5409 12.7761 39.1616 15.5667 43.8751 21.148C46.7544 25.1712 48.1941 29.4903 48.1941 34.1052C48.1941 36.6098 47.7011 39.0751 46.715 41.5008C45.7881 42.625 44.7231 43.187 43.5201 43.187C41.9621 43.187 40.7787 42.3094 39.9702 40.5542C39.8321 39.8836 39.7631 39.4892 39.7631 39.3709C40.335 37.1818 40.621 35.5449 40.621 34.4602V33.4839C40.621 29.4804 38.8164 25.9995 35.2073 23.0412C32.7421 21.2466 30.1487 20.3492 27.4271 20.3492H26.7763C22.1022 20.3492 18.3058 22.4989 15.3869 26.7982C14.0459 28.9874 13.3753 31.354 13.3753 33.8981V34.046C13.3753 39.3709 15.9589 43.4533 21.126 46.2932C23.0193 47.161 24.8633 47.5949 26.6579 47.5949H27.575C27.8314 47.5949 28.1568 47.5653 28.5512 47.5061C29.5965 47.5061 30.6418 48.1274 31.687 49.3698C32.0026 50.0798 32.1603 50.6616 32.1603 51.1152V51.4702C32.1603 53.186 31.1249 54.3693 29.0541 55.0201C28.0681 55.1187 27.3877 55.168 27.0129 55.168C20.7611 55.168 15.3179 52.5943 10.6833 47.447C7.42921 43.2462 5.80216 38.7496 5.80216 33.9573C5.80216 28.2774 8.02086 23.1497 12.4583 18.5743C16.8562 14.7088 21.7078 12.7761 27.0129 12.7761ZM38.3431 43.4829C39.98 43.4829 41.183 44.469 41.9522 46.4411L42.0409 47.299C42.0409 49.0148 41.045 50.2179 39.0531 50.9081C38.6389 50.9673 38.3826 51.0166 38.2839 51.056C36.7062 51.056 35.5229 50.1784 34.734 48.4232C34.596 48.0485 34.5269 47.6935 34.5269 47.3582V47.092C34.5269 45.4156 35.5426 44.2323 37.574 43.542C37.8895 43.5026 38.1459 43.4829 38.3431 43.4829Z"/>
</mask>
<path d="M27.0129 12.7761C33.5409 12.7761 39.1616 15.5667 43.8751 21.148C46.7544 25.1712 48.1941 29.4903 48.1941 34.1052C48.1941 36.6098 47.7011 39.0751 46.715 41.5008C45.7881 42.625 44.7231 43.187 43.5201 43.187C41.9621 43.187 40.7787 42.3094 39.9702 40.5542C39.8321 39.8836 39.7631 39.4892 39.7631 39.3709C40.335 37.1818 40.621 35.5449 40.621 34.4602V33.4839C40.621 29.4804 38.8164 25.9995 35.2073 23.0412C32.7421 21.2466 30.1487 20.3492 27.4271 20.3492H26.7763C22.1022 20.3492 18.3058 22.4989 15.3869 26.7982C14.0459 28.9874 13.3753 31.354 13.3753 33.8981V34.046C13.3753 39.3709 15.9589 43.4533 21.126 46.2932C23.0193 47.161 24.8633 47.5949 26.6579 47.5949H27.575C27.8314 47.5949 28.1568 47.5653 28.5512 47.5061C29.5965 47.5061 30.6418 48.1274 31.687 49.3698C32.0026 50.0798 32.1603 50.6616 32.1603 51.1152V51.4702C32.1603 53.186 31.1249 54.3693 29.0541 55.0201C28.0681 55.1187 27.3877 55.168 27.0129 55.168C20.7611 55.168 15.3179 52.5943 10.6833 47.447C7.42921 43.2462 5.80216 38.7496 5.80216 33.9573C5.80216 28.2774 8.02086 23.1497 12.4583 18.5743C16.8562 14.7088 21.7078 12.7761 27.0129 12.7761ZM38.3431 43.4829C39.98 43.4829 41.183 44.469 41.9522 46.4411L42.0409 47.299C42.0409 49.0148 41.045 50.2179 39.0531 50.9081C38.6389 50.9673 38.3826 51.0166 38.2839 51.056C36.7062 51.056 35.5229 50.1784 34.734 48.4232C34.596 48.0485 34.5269 47.6935 34.5269 47.3582V47.092C34.5269 45.4156 35.5426 44.2323 37.574 43.542C37.8895 43.5026 38.1459 43.4829 38.3431 43.4829Z" fill="#006FFF"/>
<path d="M43.8751 21.1479L44.8407 20.4568L44.813 20.4181L44.7823 20.3818L43.8751 21.1479ZM46.715 41.5008L47.6312 42.2563L47.7467 42.1162L47.8151 41.948L46.715 41.5008ZM39.9702 40.5542L38.807 40.7936L38.8345 40.9272L38.8916 41.051L39.9702 40.5542ZM39.7631 39.3709L38.6141 39.0707L38.5756 39.2183V39.3709H39.7631ZM35.2073 23.0412L35.9601 22.1228L35.9338 22.1012L35.9063 22.0812L35.2073 23.0412ZM15.3869 26.7982L14.4045 26.1312L14.3889 26.1542L14.3744 26.1779L15.3869 26.7982ZM21.126 46.2932L20.554 47.3339L20.5919 47.3547L20.6312 47.3727L21.126 46.2932ZM28.5512 47.5061V46.3186H28.4627L28.3751 46.3318L28.5512 47.5061ZM31.687 49.3698L32.7722 48.8875L32.7039 48.734L32.5957 48.6054L31.687 49.3698ZM29.0541 55.0201L29.1723 56.2017L29.2938 56.1896L29.4102 56.153L29.0541 55.0201ZM10.6833 47.447L9.74453 48.1742L9.77142 48.2089L9.80081 48.2415L10.6833 47.447ZM12.4583 18.5743L11.6743 17.6823L11.6388 17.7136L11.6058 17.7475L12.4583 18.5743ZM41.9522 46.4411L43.1334 46.3189L43.1169 46.1592L43.0585 46.0097L41.9522 46.4411ZM42.0409 47.299H43.2284V47.2378L43.2221 47.1768L42.0409 47.299ZM39.0531 50.9081L39.221 52.0837L39.334 52.0675L39.4419 52.0302L39.0531 50.9081ZM38.2839 51.056V52.2435H38.5126L38.725 52.1586L38.2839 51.056ZM34.734 48.4232L33.6197 48.8337L33.634 48.8724L33.6509 48.91L34.734 48.4232ZM37.574 43.542L37.4267 42.3637L37.3065 42.3787L37.1919 42.4177L37.574 43.542ZM27.0129 12.7761V13.9636C33.1469 13.9636 38.4497 16.5643 42.9678 21.9141L43.8751 21.1479L44.7823 20.3818C39.8734 14.5691 33.9348 11.5886 27.0129 11.5886V12.7761ZM43.8751 21.1479L42.9094 21.8391C45.6555 25.6761 47.0066 29.7564 47.0066 34.1052H48.1941H49.3816C49.3816 29.2241 47.8534 24.6663 44.8407 20.4568L43.8751 21.1479ZM48.1941 34.1052H47.0066C47.0066 36.4496 46.5459 38.7633 45.6149 41.0536L46.715 41.5008L47.8151 41.948C48.8562 39.3868 49.3816 36.7701 49.3816 34.1052H48.1941ZM46.715 41.5008L45.7988 40.7454C45.045 41.6596 44.2935 41.9995 43.5201 41.9995V43.187V44.3745C45.1527 44.3745 46.5312 43.5904 47.6312 42.2563L46.715 41.5008ZM43.5201 43.187V41.9995C42.9802 41.9995 42.5463 41.853 42.1715 41.575C41.7822 41.2863 41.3948 40.8085 41.0487 40.0573L39.9702 40.5542L38.8916 41.051C39.3541 42.0551 39.9627 42.8938 40.7567 43.4826C41.5652 44.0823 42.5019 44.3745 43.5201 44.3745V43.187ZM39.9702 40.5542L41.1333 40.3147C41.0652 39.9842 41.0161 39.7311 40.9846 39.5508C40.9687 39.4602 40.9586 39.3957 40.9529 39.353C40.9451 39.2949 40.9506 39.3153 40.9506 39.3709H39.7631H38.5756C38.5756 39.5533 38.6152 39.7893 38.6451 39.9602C38.6826 40.1743 38.7371 40.4537 38.807 40.7936L39.9702 40.5542ZM39.7631 39.3709L40.912 39.6711C41.4881 37.466 41.8085 35.7056 41.8085 34.4602H40.621H39.4335C39.4335 35.3841 39.1819 36.8976 38.6141 39.0707L39.7631 39.3709ZM40.621 34.4602H41.8085V33.4839H40.621H39.4335V34.4602H40.621ZM40.621 33.4839H41.8085C41.8085 29.0637 39.7935 25.265 35.9601 22.1228L35.2073 23.0412L34.4546 23.9596C37.8394 26.7341 39.4335 29.8972 39.4335 33.4839H40.621ZM35.2073 23.0412L35.9063 22.0812C33.2636 20.1573 30.4298 19.1617 27.4271 19.1617V20.3492V21.5367C29.8677 21.5367 32.2207 22.3358 34.5084 24.0013L35.2073 23.0412ZM27.4271 20.3492V19.1617H26.7763V20.3492V21.5367H27.4271V20.3492ZM26.7763 20.3492V19.1617C21.6598 19.1617 17.5154 21.549 14.4045 26.1312L15.3869 26.7982L16.3694 27.4652C19.0962 23.4488 22.5446 21.5367 26.7763 21.5367V20.3492ZM15.3869 26.7982L14.3744 26.1779C12.92 28.5519 12.1878 31.1329 12.1878 33.8981H13.3753H14.5628C14.5628 31.575 15.1717 29.4228 16.3995 27.4186L15.3869 26.7982ZM13.3753 33.8981H12.1878V34.046H13.3753H14.5628V33.8981H13.3753ZM13.3753 34.046H12.1878C12.1878 39.858 15.057 44.3127 20.554 47.3339L21.126 46.2932L21.698 45.2526C16.8607 42.5939 14.5628 38.8837 14.5628 34.046H13.3753ZM21.126 46.2932L20.6312 47.3727C22.655 48.3003 24.6672 48.7824 26.6579 48.7824V47.5949V46.4074C25.0593 46.4074 23.3836 46.0217 21.6208 45.2137L21.126 46.2932ZM26.6579 47.5949V48.7824H27.575V47.5949V46.4074H26.6579V47.5949ZM27.575 47.5949V48.7824C27.9133 48.7824 28.3029 48.7442 28.7274 48.6805L28.5512 47.5061L28.3751 46.3318C28.0107 46.3864 27.7495 46.4074 27.575 46.4074V47.5949ZM28.5512 47.5061V48.6936C29.0896 48.6936 29.8336 49.0114 30.7783 50.1343L31.687 49.3698L32.5957 48.6054C31.4499 47.2433 30.1034 46.3186 28.5512 46.3186V47.5061ZM31.687 49.3698L30.6019 49.8521C30.8913 50.5034 30.9728 50.906 30.9728 51.1152H32.1603H33.3478C33.3478 50.4172 33.1138 49.6562 32.7722 48.8875L31.687 49.3698ZM32.1603 51.1152H30.9728V51.4702H32.1603H33.3478V51.1152H32.1603ZM32.1603 51.4702H30.9728C30.9728 52.0688 30.8005 52.5078 30.4901 52.8625C30.1607 53.239 29.6014 53.6033 28.6981 53.8872L29.0541 55.0201L29.4102 56.153C30.5777 55.7861 31.5715 55.2333 32.2775 54.4265C33.0024 53.598 33.3478 52.5874 33.3478 51.4702H32.1603ZM29.0541 55.0201L28.936 53.8385C27.9457 53.9375 27.3206 53.9805 27.0129 53.9805V55.168V56.3555C27.4547 56.3555 28.1905 56.2999 29.1723 56.2017L29.0541 55.0201ZM27.0129 55.168V53.9805C21.1362 53.9805 16.0023 51.5797 11.5658 46.6524L10.6833 47.447L9.80081 48.2415C14.6335 53.6089 20.3861 56.3555 27.0129 56.3555V55.168ZM10.6833 47.447L11.6221 46.7197C8.51067 42.7032 6.98966 38.4576 6.98966 33.9573H5.80216H4.61466C4.61466 39.0417 6.34774 43.7892 9.74453 48.1742L10.6833 47.447ZM5.80216 33.9573H6.98966C6.98966 28.6247 9.05965 23.7843 13.3107 19.401L12.4583 18.5743L11.6058 17.7475C6.98207 22.5151 4.61466 27.93 4.61466 33.9573H5.80216ZM12.4583 18.5743L13.2422 19.4662C17.4476 15.77 22.027 13.9636 27.0129 13.9636V12.7761V11.5886C21.3886 11.5886 16.2648 13.6476 11.6743 17.6823L12.4583 18.5743ZM38.3431 43.4829V44.6704C38.9026 44.6704 39.3427 44.8314 39.7203 45.1408C40.1173 45.4663 40.5098 46.0108 40.8459 46.8726L41.9522 46.4411L43.0585 46.0097C42.6255 44.8993 42.0318 43.9647 41.2258 43.304C40.4003 42.6274 39.4205 42.2954 38.3431 42.2954V43.4829ZM41.9522 46.4411L40.771 46.5633L40.8597 47.4212L42.0409 47.299L43.2221 47.1768L43.1334 46.3189L41.9522 46.4411ZM42.0409 47.299H40.8534C40.8534 47.9096 40.6832 48.3638 40.3793 48.7309C40.0603 49.1162 39.5243 49.4881 38.6643 49.7861L39.0531 50.9081L39.4419 52.0302C40.5738 51.6379 41.5317 51.0632 42.2087 50.2454C42.9007 49.4095 43.2284 48.4043 43.2284 47.299H42.0409ZM39.0531 50.9081L38.8852 49.7326C38.669 49.7634 38.4805 49.7936 38.3259 49.8233C38.1998 49.8476 38.0092 49.887 37.8429 49.9535L38.2839 51.056L38.725 52.1586C38.6768 52.1779 38.6518 52.1826 38.6755 52.1767C38.692 52.1725 38.7235 52.1654 38.7744 52.1556C38.8763 52.136 39.0231 52.112 39.221 52.0837L39.0531 50.9081ZM38.2839 51.056V49.8685C37.7306 49.8685 37.2927 49.72 36.9206 49.444C36.5345 49.1577 36.1531 48.6838 35.8172 47.9364L34.734 48.4232L33.6509 48.91C34.1038 49.9178 34.7085 50.7603 35.5058 51.3516C36.3169 51.9532 37.2595 52.2435 38.2839 52.2435V51.056ZM34.734 48.4232L35.8483 48.0127C35.7497 47.7449 35.7144 47.5295 35.7144 47.3582H34.5269H33.3394C33.3394 47.8575 33.4423 48.352 33.6197 48.8337L34.734 48.4232ZM34.5269 47.3582H35.7144V47.092H34.5269H33.3394V47.3582H34.5269ZM34.5269 47.092H35.7144C35.7144 46.5145 35.8812 46.0802 36.1898 45.7206C36.5166 45.3399 37.0692 44.9678 37.956 44.6664L37.574 43.542L37.1919 42.4177C36.0474 42.8066 35.0765 43.3712 34.3876 44.1738C33.6805 44.9976 33.3394 45.993 33.3394 47.092H34.5269ZM37.574 43.542L37.7212 44.7204C38.0136 44.6838 38.2156 44.6704 38.3431 44.6704V43.4829V42.2954C38.0762 42.2954 37.7654 42.3214 37.4267 42.3637L37.574 43.542Z" fill="white" mask="url(#path-2-outside-1_29_47)"/>
<mask id="path-4-outside-2_29_47" maskUnits="userSpaceOnUse" x="5.59677" y="-0.637482" width="45" height="49" fill="black">
<rect fill="white" x="5.59677" y="-0.637482" width="45" height="49"/>
<path d="M11.8101 0.77333C12.3411 0.815808 12.7234 0.890144 12.957 0.996338C14.8898 1.78218 15.8561 3.03527 15.8561 4.75561V4.97862C15.8561 5.31844 15.7818 5.70074 15.6331 6.12552C14.7836 7.99454 13.5305 8.92905 11.8738 8.92905C11.3429 8.88657 10.9606 8.81223 10.7269 8.70604C8.75173 7.96268 7.76412 6.72021 7.76412 4.97862C7.76412 4.44765 7.83846 3.99102 7.98713 3.60872C8.83668 1.71846 10.111 0.77333 11.8101 0.77333ZM44.879 0.837046C45.3675 0.900763 45.8454 1.00696 46.3126 1.15563C48.0967 2.04766 48.9887 3.32199 48.9887 4.97862C48.9462 5.33968 48.8719 5.66888 48.7657 5.96623C48.7657 6.24233 43.4454 18.2848 32.8047 42.0935C31.9127 44.9395 30.4154 46.3625 28.3127 46.3625C27.2508 46.3625 26.1782 45.7997 25.095 44.674C24.6915 43.9731 21.9411 37.867 16.8437 26.3555C14.7623 21.9378 13.7216 19.3679 13.7216 18.6458V18.4228C13.7216 18.0618 13.796 17.6795 13.9446 17.2759C14.7729 15.3857 16.0473 14.4405 17.7676 14.4405C18.8508 14.4405 19.8915 14.9503 20.8897 15.9697C21.2296 16.3733 23.672 21.7467 28.2171 32.09H28.3764C28.5251 31.8564 32.5286 22.9148 40.387 5.26535C41.3215 2.31315 42.8188 0.837046 44.879 0.837046Z"/>
</mask>
<path d="M11.8101 0.77333C12.3411 0.815808 12.7234 0.890144 12.957 0.996338C14.8898 1.78218 15.8561 3.03527 15.8561 4.75561V4.97862C15.8561 5.31844 15.7818 5.70074 15.6331 6.12552C14.7836 7.99454 13.5305 8.92905 11.8738 8.92905C11.3429 8.88657 10.9606 8.81223 10.7269 8.70604C8.75173 7.96268 7.76412 6.72021 7.76412 4.97862C7.76412 4.44765 7.83846 3.99102 7.98713 3.60872C8.83668 1.71846 10.111 0.77333 11.8101 0.77333ZM44.879 0.837046C45.3675 0.900763 45.8454 1.00696 46.3126 1.15563C48.0967 2.04766 48.9887 3.32199 48.9887 4.97862C48.9462 5.33968 48.8719 5.66888 48.7657 5.96623C48.7657 6.24233 43.4454 18.2848 32.8047 42.0935C31.9127 44.9395 30.4154 46.3625 28.3127 46.3625C27.2508 46.3625 26.1782 45.7997 25.095 44.674C24.6915 43.9731 21.9411 37.867 16.8437 26.3555C14.7623 21.9378 13.7216 19.3679 13.7216 18.6458V18.4228C13.7216 18.0618 13.796 17.6795 13.9446 17.2759C14.7729 15.3857 16.0473 14.4405 17.7676 14.4405C18.8508 14.4405 19.8915 14.9503 20.8897 15.9697C21.2296 16.3733 23.672 21.7467 28.2171 32.09H28.3764C28.5251 31.8564 32.5286 22.9148 40.387 5.26535C41.3215 2.31315 42.8188 0.837046 44.879 0.837046Z" fill="#F7FF00"/>
<path d="M11.8101 0.773331L11.9048 -0.410389L11.8575 -0.414169H11.8101V0.773331ZM12.957 0.996338L12.4656 2.0774L12.4875 2.08734L12.5097 2.09639L12.957 0.996338ZM15.6331 6.12552L16.7142 6.61691L16.7363 6.56826L16.7539 6.51781L15.6331 6.12552ZM11.8738 8.92905L11.7791 10.1128L11.8264 10.1165H11.8738V8.92905ZM10.7269 8.70604L11.2183 7.62498L11.1823 7.60859L11.1452 7.59464L10.7269 8.70604ZM7.98713 3.60872L6.904 3.12191L6.89146 3.14981L6.88037 3.17831L7.98713 3.60872ZM44.879 0.837048L45.0326 -0.340481L44.9561 -0.350452H44.879V0.837048ZM46.3126 1.15563L46.8437 0.0934982L46.7609 0.0520973L46.6727 0.0240288L46.3126 1.15563ZM48.9887 4.97862L50.1681 5.11737L50.1762 5.04823V4.97862H48.9887ZM48.7657 5.96623L47.6474 5.56683L47.5782 5.76054V5.96623H48.7657ZM32.8047 42.0935L31.7206 41.609L31.6923 41.6722L31.6716 41.7383L32.8047 42.0935ZM25.095 44.674L24.0659 45.2666L24.1385 45.3926L24.2393 45.4974L25.095 44.674ZM16.8437 26.3555L17.9295 25.8747L17.9239 25.862L17.918 25.8494L16.8437 26.3555ZM13.9446 17.2759L12.857 16.7993L12.8427 16.8319L12.8303 16.8654L13.9446 17.2759ZM20.8897 15.9697L21.7981 15.2048L21.7694 15.1707L21.7382 15.1389L20.8897 15.9697ZM28.2171 32.09L27.13 32.5677L27.4419 33.2775H28.2171V32.09ZM28.3764 32.09V33.2775H29.0283L29.3783 32.7276L28.3764 32.09ZM40.387 5.26535L41.4718 5.74836L41.499 5.68737L41.5191 5.62372L40.387 5.26535ZM11.8101 0.773331L11.7154 1.95705C11.9515 1.97593 12.1334 2.00035 12.2684 2.02661C12.3352 2.03959 12.3848 2.05193 12.4199 2.06223C12.4558 2.07275 12.469 2.07893 12.4656 2.0774L12.957 0.996338L13.4484 -0.0847206C13.0157 -0.281429 12.4579 -0.366142 11.9048 -0.410389L11.8101 0.773331ZM12.957 0.996338L12.5097 2.09639C13.3417 2.43465 13.8707 2.8354 14.191 3.25072C14.4997 3.65103 14.6686 4.13354 14.6686 4.75562H15.8561H17.0436C17.0436 3.65734 16.7294 2.65313 16.0717 1.80035C15.4256 0.962578 14.5051 0.343864 13.4043 -0.10371L12.957 0.996338ZM15.8561 4.75562H14.6686V4.97862H15.8561H17.0436V4.75562H15.8561ZM15.8561 4.97862H14.6686C14.6686 5.14944 14.6303 5.39609 14.5123 5.73323L15.6331 6.12552L16.7539 6.51781C16.9333 6.0054 17.0436 5.48745 17.0436 4.97862H15.8561ZM15.6331 6.12552L14.5521 5.63413C14.185 6.4416 13.7696 6.96045 13.3462 7.27623C12.9374 7.58108 12.4626 7.74155 11.8738 7.74155V8.92905V10.1165C12.9417 10.1165 13.9217 9.80976 14.766 9.1801C15.5957 8.56137 16.2317 7.67846 16.7142 6.61691L15.6331 6.12552ZM11.8738 8.92905L11.9685 7.74533C11.7325 7.72644 11.5506 7.70202 11.4155 7.67577C11.3488 7.66279 11.2992 7.65045 11.264 7.64015C11.2281 7.62963 11.215 7.62345 11.2183 7.62498L10.7269 8.70604L10.2356 9.7871C10.6683 9.98381 11.2261 10.0685 11.7791 10.1128L11.8738 8.92905ZM10.7269 8.70604L11.1452 7.59464C10.2943 7.27439 9.75748 6.88417 9.43443 6.47775C9.12412 6.08736 8.95162 5.60882 8.95162 4.97862H7.76412H6.57662C6.57662 6.09001 6.89793 7.1035 7.57522 7.95558C8.23978 8.79163 9.18441 9.39433 10.3087 9.81744L10.7269 8.70604ZM7.76412 4.97862H8.95162C8.95162 4.55362 9.01173 4.25038 9.09389 4.03912L7.98713 3.60872L6.88037 3.17831C6.66519 3.73165 6.57662 4.34168 6.57662 4.97862H7.76412ZM7.98713 3.60872L9.07026 4.09552C9.43655 3.28054 9.85586 2.75607 10.2874 2.43598C10.7051 2.12622 11.1961 1.96083 11.8101 1.96083V0.773331V-0.414169C10.725 -0.414169 9.72933 -0.107002 8.87264 0.528374C8.02989 1.15342 7.38727 2.04663 6.904 3.12191L7.98713 3.60872ZM44.879 0.837048L44.7254 2.01457C45.1442 2.06919 45.553 2.16008 45.9526 2.28723L46.3126 1.15563L46.6727 0.0240288C46.1378 -0.146164 45.5908 -0.26767 45.0326 -0.340481L44.879 0.837048ZM46.3126 1.15563L45.7816 2.21776C46.5455 2.59975 47.0417 3.02537 47.3469 3.46139C47.6439 3.88567 47.8012 4.37722 47.8012 4.97862H48.9887H50.1762C50.1762 3.9234 49.8876 2.94946 49.2925 2.09941C48.7057 1.2611 47.8638 0.603542 46.8437 0.0934982L46.3126 1.15563ZM48.9887 4.97862L47.8094 4.83987C47.7758 5.12511 47.7194 5.36535 47.6474 5.56683L48.7657 5.96623L49.884 6.36563C50.0245 5.97242 50.1167 5.55426 50.1681 5.11737L48.9887 4.97862ZM48.7657 5.96623H47.5782C47.5782 5.86562 47.5916 5.78904 47.5962 5.76365C47.6024 5.72927 47.6088 5.70341 47.612 5.69086C47.6185 5.66587 47.6233 5.65173 47.622 5.65573C47.62 5.66177 47.6119 5.68522 47.5936 5.73339C47.558 5.82678 47.5007 5.96973 47.4189 6.16767C47.2563 6.56107 47.0099 7.14027 46.678 7.90865C46.015 9.4438 45.019 11.7154 43.6893 14.7252C41.0302 20.744 37.0407 29.705 31.7206 41.609L32.8047 42.0935L33.8889 42.578C39.2094 30.6733 43.2005 21.7086 45.8617 15.685C47.1921 12.6737 48.1913 10.3948 48.8583 8.85033C49.1915 8.0789 49.4439 7.48598 49.6138 7.07496C49.6982 6.87069 49.7656 6.70335 49.8132 6.57838C49.8364 6.51737 49.8594 6.45462 49.8782 6.39744C49.8873 6.36983 49.9 6.32982 49.9116 6.28472C49.914 6.2754 49.9532 6.1371 49.9532 5.96623H48.7657ZM32.8047 42.0935L31.6716 41.7383C31.2608 43.0488 30.7463 43.9102 30.1946 44.4345C29.671 44.9321 29.0656 45.175 28.3127 45.175V46.3625V47.55C29.6624 47.55 30.857 47.0815 31.8307 46.1561C32.7764 45.2574 33.4566 43.9842 33.9379 42.4487L32.8047 42.0935ZM28.3127 46.3625V45.175C27.6995 45.175 26.9157 44.8534 25.9507 43.8506L25.095 44.674L24.2393 45.4974C25.4407 46.7459 26.802 47.55 28.3127 47.55V46.3625ZM25.095 44.674L26.1241 44.0815C25.9607 43.7976 25.2066 42.1766 23.8123 39.081C22.4386 36.0314 20.4779 31.6298 17.9295 25.8747L16.8437 26.3555L15.7579 26.8363C18.3069 32.5927 20.27 36.9999 21.6468 40.0564C23.0029 43.067 23.8258 44.8496 24.0659 45.2666L25.095 44.674ZM16.8437 26.3555L17.918 25.8494C16.8808 23.648 16.111 21.924 15.6028 20.6691C15.3483 20.0405 15.1659 19.5456 15.049 19.1759C14.9188 18.764 14.9091 18.6245 14.9091 18.6458H13.7216H12.5341C12.5341 19.0282 12.6545 19.4808 12.7845 19.8918C12.9278 20.3452 13.1357 20.9042 13.4015 21.5606C13.934 22.8756 14.7253 24.6454 15.7695 26.8617L16.8437 26.3555ZM13.7216 18.6458H14.9091V18.4228H13.7216H12.5341V18.6458H13.7216ZM13.7216 18.4228H14.9091C14.9091 18.2258 14.9496 17.983 15.0589 17.6864L13.9446 17.2759L12.8303 16.8654C12.6423 17.3759 12.5341 17.8977 12.5341 18.4228H13.7216ZM13.9446 17.2759L15.0323 17.7525C15.3877 16.9413 15.8007 16.4208 16.229 16.1032C16.644 15.7954 17.1395 15.628 17.7676 15.628V14.4405V13.253C16.6754 13.253 15.6735 13.5582 14.8142 14.1956C13.9682 14.823 13.3298 15.7202 12.857 16.7993L13.9446 17.2759ZM17.7676 14.4405V15.628C18.4396 15.628 19.1926 15.9339 20.0412 16.8005L20.8897 15.9697L21.7382 15.1389C20.5904 13.9667 19.262 13.253 17.7676 13.253V14.4405ZM20.8897 15.9697L19.9814 16.7346C19.9242 16.6667 19.9391 16.6678 20.0647 16.9067C20.1634 17.0944 20.2975 17.3634 20.469 17.7195C20.811 18.4297 21.2859 19.453 21.8954 20.7938C23.1135 23.4736 24.858 27.3973 27.13 32.5677L28.2171 32.09L29.3043 31.6123C27.0312 26.4394 25.2819 22.5047 24.0575 19.8111C23.4457 18.4651 22.9622 17.423 22.6087 16.689C22.4324 16.3229 22.2845 16.0252 22.1668 15.8014C22.076 15.6287 21.9403 15.3737 21.7981 15.2048L20.8897 15.9697ZM28.2171 32.09V33.2775H28.3764V32.09V30.9025H28.2171V32.09ZM28.3764 32.09L29.3783 32.7276C29.4368 32.6357 29.4992 32.5018 29.5213 32.4553C29.564 32.3659 29.6209 32.244 29.6911 32.0918C29.832 31.7864 30.0327 31.3459 30.2926 30.7717C30.8126 29.6225 31.5733 27.9297 32.5744 25.6939C34.5767 21.222 37.5426 14.5733 41.4718 5.74836L40.387 5.26535L39.3022 4.78233C35.3731 13.6069 32.408 20.2537 30.4067 24.7234C29.406 26.9584 28.6469 28.6478 28.1288 29.7925C27.8697 30.3652 27.6718 30.7994 27.5346 31.0967C27.4658 31.2458 27.4138 31.3571 27.3776 31.433C27.3209 31.5518 27.3347 31.5152 27.3746 31.4525L28.3764 32.09ZM40.387 5.26535L41.5191 5.62372C41.9536 4.25127 42.4833 3.34309 43.0445 2.78979C43.5761 2.26573 44.168 2.02455 44.879 2.02455V0.837048V-0.350452C43.5298 -0.350452 42.343 0.146412 41.3772 1.09846C40.4411 2.02126 39.7549 3.32722 39.2549 4.90697L40.387 5.26535Z" fill="white" mask="url(#path-4-outside-2_29_47)"/>
</g>
<path d="M86.8678 10.5383L91.3724 23.6275L95.9005 10.5383H99.4145L93.377 27H89.3677L83.3302 10.5383H86.8678ZM103.069 12.3779C102.487 12.3779 101.999 12.197 101.606 11.8354C101.229 11.4581 101.04 10.9943 101.04 10.444C101.04 9.89366 101.229 9.4377 101.606 9.07608C101.999 8.69873 102.487 8.51006 103.069 8.51006C103.65 8.51006 104.13 8.69873 104.507 9.07608C104.9 9.4377 105.097 9.89366 105.097 10.444C105.097 10.9943 104.9 11.4581 104.507 11.8354C104.13 12.197 103.65 12.3779 103.069 12.3779ZM104.696 13.9344V27H101.394V13.9344H104.696ZM112.934 27.2123C111.865 27.2123 110.906 27.0236 110.057 26.6462C109.224 26.2532 108.556 25.7265 108.052 25.0661C107.565 24.4057 107.298 23.6746 107.251 22.8728H110.576C110.639 23.4231 110.882 23.8712 111.307 24.2171C111.732 24.5473 112.274 24.7123 112.934 24.7123C113.563 24.7123 114.051 24.5866 114.397 24.335C114.758 24.0677 114.939 23.7139 114.939 23.2737C114.939 22.8492 114.719 22.5269 114.279 22.3068C113.854 22.0866 113.162 21.8587 112.203 21.6228C111.244 21.387 110.458 21.1511 109.845 20.9153C109.232 20.6637 108.705 20.2785 108.265 19.7597C107.824 19.2408 107.604 18.5569 107.604 17.7079C107.604 16.9689 107.801 16.3007 108.194 15.7032C108.603 15.09 109.192 14.6105 109.963 14.2646C110.749 13.903 111.669 13.7221 112.722 13.7221C114.279 13.7221 115.521 14.1152 116.448 14.9014C117.376 15.6718 117.887 16.7173 117.981 18.038H114.821C114.774 17.4877 114.554 17.0475 114.161 16.7173C113.783 16.3872 113.272 16.2221 112.628 16.2221C112.03 16.2221 111.566 16.3478 111.236 16.5994C110.922 16.8352 110.765 17.1654 110.765 17.5899C110.765 18.0302 110.985 18.3682 111.425 18.6041C111.865 18.8242 112.549 19.0522 113.477 19.288C114.42 19.5238 115.198 19.7675 115.812 20.0191C116.425 20.2707 116.951 20.6559 117.392 21.1747C117.832 21.6779 118.052 22.3618 118.052 23.2265C118.052 23.9812 117.848 24.6652 117.439 25.2784C117.03 25.8758 116.44 26.3475 115.67 26.6934C114.9 27.0393 113.988 27.2123 112.934 27.2123ZM122.484 12.3779C121.902 12.3779 121.415 12.197 121.022 11.8354C120.644 11.4581 120.456 10.9943 120.456 10.444C120.456 9.89366 120.644 9.4377 121.022 9.07608C121.415 8.69873 121.902 8.51006 122.484 8.51006C123.066 8.51006 123.545 8.69873 123.923 9.07608C124.316 9.4377 124.512 9.89366 124.512 10.444C124.512 10.9943 124.316 11.4581 123.923 11.8354C123.545 12.197 123.066 12.3779 122.484 12.3779ZM124.111 13.9344V27H120.81V13.9344H124.111ZM131.218 16.6466V22.9671C131.218 23.4074 131.32 23.7297 131.524 23.9341C131.744 24.1227 132.106 24.2171 132.609 24.2171H134.142V27H132.067C129.284 27 127.892 25.6478 127.892 22.9435V16.6466H126.336V13.9344H127.892V10.7034H131.218V13.9344H134.142V16.6466H131.218ZM135.668 20.42C135.668 19.0993 135.927 17.928 136.446 16.906C136.981 15.884 137.696 15.0979 138.592 14.5476C139.504 13.9973 140.518 13.7221 141.635 13.7221C142.61 13.7221 143.459 13.9187 144.182 14.3117C144.921 14.7048 145.51 15.2001 145.951 15.7975V13.9344H149.276V27H145.951V25.0897C145.526 25.7029 144.936 26.2139 144.182 26.6227C143.443 27.0157 142.586 27.2123 141.611 27.2123C140.511 27.2123 139.504 26.9292 138.592 26.3632C137.696 25.7972 136.981 25.0032 136.446 23.9812C135.927 22.9435 135.668 21.7565 135.668 20.42ZM145.951 20.4672C145.951 19.6653 145.793 18.9814 145.479 18.4154C145.164 17.8336 144.74 17.3934 144.205 17.0947C143.671 16.7802 143.097 16.623 142.484 16.623C141.871 16.623 141.305 16.7724 140.786 17.0711C140.267 17.3698 139.842 17.8101 139.512 18.3918C139.198 18.9578 139.04 19.6339 139.04 20.42C139.04 21.2062 139.198 21.898 139.512 22.4954C139.842 23.0772 140.267 23.5253 140.786 23.8397C141.32 24.1542 141.886 24.3114 142.484 24.3114C143.097 24.3114 143.671 24.162 144.205 23.8633C144.74 23.5489 145.164 23.1086 145.479 22.5426C145.793 21.9609 145.951 21.2691 145.951 20.4672Z" fill="white"/>
<mask id="path-7-outside-3_29_47" maskUnits="userSpaceOnUse" x="83" y="33.8333" width="127" height="23" fill="black">
<rect fill="white" x="83" y="33.8333" width="127" height="23"/>
<path d="M97.0699 55.7715L94.5378 52.7378C93.8371 52.9129 93.1205 53.0005 92.3879 53.0005C90.8272 53.0005 89.394 52.6342 88.0881 51.9017C86.7822 51.1691 85.7471 50.1579 84.9827 48.8679C84.2183 47.5621 83.8361 46.089 83.8361 44.4487C83.8361 42.8243 84.2183 41.3672 84.9827 40.0772C85.7471 38.7713 86.7822 37.7521 88.0881 37.0196C89.394 36.287 90.8272 35.9207 92.3879 35.9207C93.9645 35.9207 95.3978 36.287 96.6877 37.0196C97.9936 37.7521 99.0208 38.7713 99.7693 40.0772C100.534 41.3672 100.916 42.8243 100.916 44.4487C100.916 45.9297 100.597 47.2834 99.9604 48.5096C99.3393 49.7199 98.4873 50.7073 97.4044 51.4717L101.226 55.7715H97.0699ZM87.2759 44.4487C87.2759 45.5475 87.4909 46.511 87.9209 47.3391C88.3509 48.1513 88.9481 48.7883 89.7125 49.2501C90.4928 49.696 91.3846 49.919 92.3879 49.919C93.3912 49.919 94.2751 49.696 95.0395 49.2501C95.8039 48.7883 96.4011 48.1513 96.8311 47.3391C97.261 46.511 97.476 45.5475 97.476 44.4487C97.476 43.3498 97.261 42.3943 96.8311 41.5821C96.4011 40.754 95.8039 40.117 95.0395 39.6711C94.2751 39.2252 93.3912 39.0023 92.3879 39.0023C91.3846 39.0023 90.4928 39.2252 89.7125 39.6711C88.9481 40.117 88.3509 40.754 87.9209 41.5821C87.4909 42.3943 87.2759 43.3498 87.2759 44.4487ZM115.944 39.5995V52.8333H112.576V51.1612C112.146 51.7345 111.58 52.1883 110.88 52.5228C110.195 52.8413 109.446 53.0005 108.634 53.0005C107.599 53.0005 106.683 52.7855 105.887 52.3556C105.091 51.9097 104.462 51.2647 104 50.4206C103.554 49.5607 103.331 48.5415 103.331 47.363V39.5995H106.675V46.8852C106.675 47.9363 106.938 48.7485 107.464 49.3218C107.989 49.8792 108.706 50.1579 109.614 50.1579C110.537 50.1579 111.262 49.8792 111.787 49.3218C112.313 48.7485 112.576 47.9363 112.576 46.8852V39.5995H115.944ZM118.384 46.1686C118.384 44.8309 118.646 43.6445 119.172 42.6093C119.713 41.5742 120.438 40.7779 121.346 40.2205C122.269 39.6632 123.297 39.3845 124.427 39.3845C125.415 39.3845 126.275 39.5835 127.007 39.9817C127.756 40.3798 128.353 40.8814 128.799 41.4866V39.5995H132.167V52.8333H128.799V50.8984C128.369 51.5195 127.772 52.0371 127.007 52.4511C126.259 52.8492 125.391 53.0483 124.403 53.0483C123.289 53.0483 122.269 52.7616 121.346 52.1883C120.438 51.615 119.713 50.8108 119.172 49.7757C118.646 48.7246 118.384 47.5223 118.384 46.1686ZM128.799 46.2164C128.799 45.4042 128.639 44.7115 128.321 44.1381C128.002 43.5489 127.573 43.103 127.031 42.8004C126.49 42.4819 125.908 42.3227 125.287 42.3227C124.666 42.3227 124.093 42.474 123.567 42.7765C123.042 43.0791 122.612 43.525 122.277 44.1143C121.959 44.6876 121.8 45.3723 121.8 46.1686C121.8 46.9649 121.959 47.6656 122.277 48.2707C122.612 48.86 123.042 49.3138 123.567 49.6323C124.109 49.9508 124.682 50.1101 125.287 50.1101C125.908 50.1101 126.49 49.9588 127.031 49.6562C127.573 49.3377 128.002 48.8918 128.321 48.3185C128.639 47.7293 128.799 47.0286 128.799 46.2164ZM138.778 35.1563V52.8333H135.433V35.1563H138.778ZM143.778 38.0229C143.188 38.0229 142.695 37.8397 142.297 37.4734C141.914 37.0912 141.723 36.6214 141.723 36.0641C141.723 35.5067 141.914 35.0448 142.297 34.6786C142.695 34.2964 143.188 34.1053 143.778 34.1053C144.367 34.1053 144.853 34.2964 145.235 34.6786C145.633 35.0448 145.832 35.5067 145.832 36.0641C145.832 36.6214 145.633 37.0912 145.235 37.4734C144.853 37.8397 144.367 38.0229 143.778 38.0229ZM145.426 39.5995V52.8333H142.082V39.5995H145.426ZM147.87 46.1686C147.87 44.8309 148.133 43.6445 148.658 42.6093C149.2 41.5742 149.933 40.7779 150.856 40.2205C151.78 39.6632 152.807 39.3845 153.938 39.3845C154.798 39.3845 155.618 39.5756 156.398 39.9578C157.178 40.3241 157.8 40.8177 158.261 41.4388V35.1563H161.653V52.8333H158.261V50.8745C157.847 51.5274 157.266 52.053 156.518 52.4511C155.769 52.8492 154.901 53.0483 153.914 53.0483C152.799 53.0483 151.78 52.7616 150.856 52.1883C149.933 51.615 149.2 50.8108 148.658 49.7757C148.133 48.7246 147.87 47.5223 147.87 46.1686ZM158.285 46.2164C158.285 45.4042 158.126 44.7115 157.808 44.1381C157.489 43.5489 157.059 43.103 156.518 42.8004C155.976 42.4819 155.395 42.3227 154.774 42.3227C154.153 42.3227 153.579 42.474 153.054 42.7765C152.528 43.0791 152.098 43.525 151.764 44.1143C151.445 44.6876 151.286 45.3723 151.286 46.1686C151.286 46.9649 151.445 47.6656 151.764 48.2707C152.098 48.86 152.528 49.3138 153.054 49.6323C153.595 49.9508 154.169 50.1101 154.774 50.1101C155.395 50.1101 155.976 49.9588 156.518 49.6562C157.059 49.3377 157.489 48.8918 157.808 48.3185C158.126 47.7293 158.285 47.0286 158.285 46.2164ZM164.06 46.1686C164.06 44.8309 164.323 43.6445 164.848 42.6093C165.39 41.5742 166.114 40.7779 167.022 40.2205C167.946 39.6632 168.973 39.3845 170.103 39.3845C171.091 39.3845 171.951 39.5835 172.683 39.9817C173.432 40.3798 174.029 40.8814 174.475 41.4866V39.5995H177.843V52.8333H174.475V50.8984C174.045 51.5195 173.448 52.0371 172.683 52.4511C171.935 52.8492 171.067 53.0483 170.08 53.0483C168.965 53.0483 167.946 52.7616 167.022 52.1883C166.114 51.615 165.39 50.8108 164.848 49.7757C164.323 48.7246 164.06 47.5223 164.06 46.1686ZM174.475 46.2164C174.475 45.4042 174.316 44.7115 173.997 44.1381C173.679 43.5489 173.249 43.103 172.707 42.8004C172.166 42.4819 171.584 42.3227 170.963 42.3227C170.342 42.3227 169.769 42.474 169.243 42.7765C168.718 43.0791 168.288 43.525 167.954 44.1143C167.635 44.6876 167.476 45.3723 167.476 46.1686C167.476 46.9649 167.635 47.6656 167.954 48.2707C168.288 48.86 168.718 49.3138 169.243 49.6323C169.785 49.9508 170.358 50.1101 170.963 50.1101C171.584 50.1101 172.166 49.9588 172.707 49.6562C173.249 49.3377 173.679 48.8918 173.997 48.3185C174.316 47.7293 174.475 47.0286 174.475 46.2164ZM180.249 46.1686C180.249 44.8309 180.512 43.6445 181.038 42.6093C181.579 41.5742 182.312 40.7779 183.235 40.2205C184.159 39.6632 185.186 39.3845 186.317 39.3845C187.177 39.3845 187.997 39.5756 188.777 39.9578C189.558 40.3241 190.179 40.8177 190.641 41.4388V35.1563H194.033V52.8333H190.641V50.8745C190.227 51.5274 189.645 52.053 188.897 52.4511C188.148 52.8492 187.28 53.0483 186.293 53.0483C185.178 53.0483 184.159 52.7616 183.235 52.1883C182.312 51.615 181.579 50.8108 181.038 49.7757C180.512 48.7246 180.249 47.5223 180.249 46.1686ZM190.664 46.2164C190.664 45.4042 190.505 44.7115 190.187 44.1381C189.868 43.5489 189.438 43.103 188.897 42.8004C188.355 42.4819 187.774 42.3227 187.153 42.3227C186.532 42.3227 185.959 42.474 185.433 42.7765C184.908 43.0791 184.478 43.525 184.143 44.1143C183.825 44.6876 183.665 45.3723 183.665 46.1686C183.665 46.9649 183.825 47.6656 184.143 48.2707C184.478 48.86 184.908 49.3138 185.433 49.6323C185.975 49.9508 186.548 50.1101 187.153 50.1101C187.774 50.1101 188.355 49.9588 188.897 49.6562C189.438 49.3377 189.868 48.8918 190.187 48.3185C190.505 47.7293 190.664 47.0286 190.664 46.2164ZM209.601 45.9058C209.601 46.3517 209.569 46.7658 209.506 47.148H199.831C199.895 48.1194 200.221 48.8839 200.81 49.4412C201.4 49.9986 202.132 50.2773 203.008 50.2773C204.25 50.2773 205.134 49.7438 205.66 48.6768H209.267C208.885 49.9508 208.152 51.0019 207.069 51.83C205.986 52.6422 204.656 53.0483 203.08 53.0483C201.806 53.0483 200.659 52.7696 199.64 52.2122C198.637 51.6389 197.848 50.8347 197.275 49.7996C196.718 48.7644 196.439 47.57 196.439 46.2164C196.439 44.8468 196.718 43.6445 197.275 42.6093C197.832 41.5742 198.613 40.7779 199.616 40.2205C200.619 39.6632 201.774 39.3845 203.08 39.3845C204.338 39.3845 205.461 39.6552 206.448 40.1967C207.451 40.7381 208.224 41.5025 208.765 42.4899C209.323 43.4772 209.601 44.6159 209.601 45.9058ZM206.137 45.1175C206.122 44.1939 205.811 43.4693 205.206 42.9438C204.617 42.4023 203.876 42.1316 202.984 42.1316C202.14 42.1316 201.432 42.4023 200.858 42.9438C200.285 43.4693 199.943 44.1939 199.831 45.1175H206.137Z"/>
</mask>
<path d="M97.0699 55.7715L94.5378 52.7378C93.8371 52.9129 93.1205 53.0005 92.3879 53.0005C90.8272 53.0005 89.394 52.6342 88.0881 51.9017C86.7822 51.1691 85.7471 50.1579 84.9827 48.8679C84.2183 47.5621 83.8361 46.089 83.8361 44.4487C83.8361 42.8243 84.2183 41.3672 84.9827 40.0772C85.7471 38.7713 86.7822 37.7521 88.0881 37.0196C89.394 36.287 90.8272 35.9207 92.3879 35.9207C93.9645 35.9207 95.3978 36.287 96.6877 37.0196C97.9936 37.7521 99.0208 38.7713 99.7693 40.0772C100.534 41.3672 100.916 42.8243 100.916 44.4487C100.916 45.9297 100.597 47.2834 99.9604 48.5096C99.3393 49.7199 98.4873 50.7073 97.4044 51.4717L101.226 55.7715H97.0699ZM87.2759 44.4487C87.2759 45.5475 87.4909 46.511 87.9209 47.3391C88.3509 48.1513 88.9481 48.7883 89.7125 49.2501C90.4928 49.696 91.3846 49.919 92.3879 49.919C93.3912 49.919 94.2751 49.696 95.0395 49.2501C95.8039 48.7883 96.4011 48.1513 96.8311 47.3391C97.261 46.511 97.476 45.5475 97.476 44.4487C97.476 43.3498 97.261 42.3943 96.8311 41.5821C96.4011 40.754 95.8039 40.117 95.0395 39.6711C94.2751 39.2252 93.3912 39.0023 92.3879 39.0023C91.3846 39.0023 90.4928 39.2252 89.7125 39.6711C88.9481 40.117 88.3509 40.754 87.9209 41.5821C87.4909 42.3943 87.2759 43.3498 87.2759 44.4487ZM115.944 39.5995V52.8333H112.576V51.1612C112.146 51.7345 111.58 52.1883 110.88 52.5228C110.195 52.8413 109.446 53.0005 108.634 53.0005C107.599 53.0005 106.683 52.7855 105.887 52.3556C105.091 51.9097 104.462 51.2647 104 50.4206C103.554 49.5607 103.331 48.5415 103.331 47.363V39.5995H106.675V46.8852C106.675 47.9363 106.938 48.7485 107.464 49.3218C107.989 49.8792 108.706 50.1579 109.614 50.1579C110.537 50.1579 111.262 49.8792 111.787 49.3218C112.313 48.7485 112.576 47.9363 112.576 46.8852V39.5995H115.944ZM118.384 46.1686C118.384 44.8309 118.646 43.6445 119.172 42.6093C119.713 41.5742 120.438 40.7779 121.346 40.2205C122.269 39.6632 123.297 39.3845 124.427 39.3845C125.415 39.3845 126.275 39.5835 127.007 39.9817C127.756 40.3798 128.353 40.8814 128.799 41.4866V39.5995H132.167V52.8333H128.799V50.8984C128.369 51.5195 127.772 52.0371 127.007 52.4511C126.259 52.8492 125.391 53.0483 124.403 53.0483C123.289 53.0483 122.269 52.7616 121.346 52.1883C120.438 51.615 119.713 50.8108 119.172 49.7757C118.646 48.7246 118.384 47.5223 118.384 46.1686ZM128.799 46.2164C128.799 45.4042 128.639 44.7115 128.321 44.1381C128.002 43.5489 127.573 43.103 127.031 42.8004C126.49 42.4819 125.908 42.3227 125.287 42.3227C124.666 42.3227 124.093 42.474 123.567 42.7765C123.042 43.0791 122.612 43.525 122.277 44.1143C121.959 44.6876 121.8 45.3723 121.8 46.1686C121.8 46.9649 121.959 47.6656 122.277 48.2707C122.612 48.86 123.042 49.3138 123.567 49.6323C124.109 49.9508 124.682 50.1101 125.287 50.1101C125.908 50.1101 126.49 49.9588 127.031 49.6562C127.573 49.3377 128.002 48.8918 128.321 48.3185C128.639 47.7293 128.799 47.0286 128.799 46.2164ZM138.778 35.1563V52.8333H135.433V35.1563H138.778ZM143.778 38.0229C143.188 38.0229 142.695 37.8397 142.297 37.4734C141.914 37.0912 141.723 36.6214 141.723 36.0641C141.723 35.5067 141.914 35.0448 142.297 34.6786C142.695 34.2964 143.188 34.1053 143.778 34.1053C144.367 34.1053 144.853 34.2964 145.235 34.6786C145.633 35.0448 145.832 35.5067 145.832 36.0641C145.832 36.6214 145.633 37.0912 145.235 37.4734C144.853 37.8397 144.367 38.0229 143.778 38.0229ZM145.426 39.5995V52.8333H142.082V39.5995H145.426ZM147.87 46.1686C147.87 44.8309 148.133 43.6445 148.658 42.6093C149.2 41.5742 149.933 40.7779 150.856 40.2205C151.78 39.6632 152.807 39.3845 153.938 39.3845C154.798 39.3845 155.618 39.5756 156.398 39.9578C157.178 40.3241 157.8 40.8177 158.261 41.4388V35.1563H161.653V52.8333H158.261V50.8745C157.847 51.5274 157.266 52.053 156.518 52.4511C155.769 52.8492 154.901 53.0483 153.914 53.0483C152.799 53.0483 151.78 52.7616 150.856 52.1883C149.933 51.615 149.2 50.8108 148.658 49.7757C148.133 48.7246 147.87 47.5223 147.87 46.1686ZM158.285 46.2164C158.285 45.4042 158.126 44.7115 157.808 44.1381C157.489 43.5489 157.059 43.103 156.518 42.8004C155.976 42.4819 155.395 42.3227 154.774 42.3227C154.153 42.3227 153.579 42.474 153.054 42.7765C152.528 43.0791 152.098 43.525 151.764 44.1143C151.445 44.6876 151.286 45.3723 151.286 46.1686C151.286 46.9649 151.445 47.6656 151.764 48.2707C152.098 48.86 152.528 49.3138 153.054 49.6323C153.595 49.9508 154.169 50.1101 154.774 50.1101C155.395 50.1101 155.976 49.9588 156.518 49.6562C157.059 49.3377 157.489 48.8918 157.808 48.3185C158.126 47.7293 158.285 47.0286 158.285 46.2164ZM164.06 46.1686C164.06 44.8309 164.323 43.6445 164.848 42.6093C165.39 41.5742 166.114 40.7779 167.022 40.2205C167.946 39.6632 168.973 39.3845 170.103 39.3845C171.091 39.3845 171.951 39.5835 172.683 39.9817C173.432 40.3798 174.029 40.8814 174.475 41.4866V39.5995H177.843V52.8333H174.475V50.8984C174.045 51.5195 173.448 52.0371 172.683 52.4511C171.935 52.8492 171.067 53.0483 170.08 53.0483C168.965 53.0483 167.946 52.7616 167.022 52.1883C166.114 51.615 165.39 50.8108 164.848 49.7757C164.323 48.7246 164.06 47.5223 164.06 46.1686ZM174.475 46.2164C174.475 45.4042 174.316 44.7115 173.997 44.1381C173.679 43.5489 173.249 43.103 172.707 42.8004C172.166 42.4819 171.584 42.3227 170.963 42.3227C170.342 42.3227 169.769 42.474 169.243 42.7765C168.718 43.0791 168.288 43.525 167.954 44.1143C167.635 44.6876 167.476 45.3723 167.476 46.1686C167.476 46.9649 167.635 47.6656 167.954 48.2707C168.288 48.86 168.718 49.3138 169.243 49.6323C169.785 49.9508 170.358 50.1101 170.963 50.1101C171.584 50.1101 172.166 49.9588 172.707 49.6562C173.249 49.3377 173.679 48.8918 173.997 48.3185C174.316 47.7293 174.475 47.0286 174.475 46.2164ZM180.249 46.1686C180.249 44.8309 180.512 43.6445 181.038 42.6093C181.579 41.5742 182.312 40.7779 183.235 40.2205C184.159 39.6632 185.186 39.3845 186.317 39.3845C187.177 39.3845 187.997 39.5756 188.777 39.9578C189.558 40.3241 190.179 40.8177 190.641 41.4388V35.1563H194.033V52.8333H190.641V50.8745C190.227 51.5274 189.645 52.053 188.897 52.4511C188.148 52.8492 187.28 53.0483 186.293 53.0483C185.178 53.0483 184.159 52.7616 183.235 52.1883C182.312 51.615 181.579 50.8108 181.038 49.7757C180.512 48.7246 180.249 47.5223 180.249 46.1686ZM190.664 46.2164C190.664 45.4042 190.505 44.7115 190.187 44.1381C189.868 43.5489 189.438 43.103 188.897 42.8004C188.355 42.4819 187.774 42.3227 187.153 42.3227C186.532 42.3227 185.959 42.474 185.433 42.7765C184.908 43.0791 184.478 43.525 184.143 44.1143C183.825 44.6876 183.665 45.3723 183.665 46.1686C183.665 46.9649 183.825 47.6656 184.143 48.2707C184.478 48.86 184.908 49.3138 185.433 49.6323C185.975 49.9508 186.548 50.1101 187.153 50.1101C187.774 50.1101 188.355 49.9588 188.897 49.6562C189.438 49.3377 189.868 48.8918 190.187 48.3185C190.505 47.7293 190.664 47.0286 190.664 46.2164ZM209.601 45.9058C209.601 46.3517 209.569 46.7658 209.506 47.148H199.831C199.895 48.1194 200.221 48.8839 200.81 49.4412C201.4 49.9986 202.132 50.2773 203.008 50.2773C204.25 50.2773 205.134 49.7438 205.66 48.6768H209.267C208.885 49.9508 208.152 51.0019 207.069 51.83C205.986 52.6422 204.656 53.0483 203.08 53.0483C201.806 53.0483 200.659 52.7696 199.64 52.2122C198.637 51.6389 197.848 50.8347 197.275 49.7996C196.718 48.7644 196.439 47.57 196.439 46.2164C196.439 44.8468 196.718 43.6445 197.275 42.6093C197.832 41.5742 198.613 40.7779 199.616 40.2205C200.619 39.6632 201.774 39.3845 203.08 39.3845C204.338 39.3845 205.461 39.6552 206.448 40.1967C207.451 40.7381 208.224 41.5025 208.765 42.4899C209.323 43.4772 209.601 44.6159 209.601 45.9058ZM206.137 45.1175C206.122 44.1939 205.811 43.4693 205.206 42.9438C204.617 42.4023 203.876 42.1316 202.984 42.1316C202.14 42.1316 201.432 42.4023 200.858 42.9438C200.285 43.4693 199.943 44.1939 199.831 45.1175H206.137Z" fill="#F7FF00"/>
<path d="M97.0699 55.7715L96.9782 55.848L97.014 55.891H97.0699V55.7715ZM94.5378 52.7378L94.6295 52.6612L94.5815 52.6037L94.5089 52.6219L94.5378 52.7378ZM88.0881 51.9017L88.1465 51.7975L88.0881 51.9017ZM84.9827 48.8679L84.8796 48.9283L84.8799 48.9288L84.9827 48.8679ZM84.9827 40.0772L85.0854 40.1381L85.0858 40.1375L84.9827 40.0772ZM88.0881 37.0196L88.0297 36.9154V36.9154L88.0881 37.0196ZM96.6877 37.0196L96.6287 37.1234L96.6293 37.1237L96.6877 37.0196ZM99.7693 40.0772L99.6656 40.1366L99.6665 40.1381L99.7693 40.0772ZM99.9604 48.5096L99.8544 48.4546L99.8541 48.4551L99.9604 48.5096ZM97.4044 51.4717L97.3355 51.3741L97.2263 51.4512L97.3151 51.5511L97.4044 51.4717ZM101.226 55.7715V55.891H101.492L101.316 55.6922L101.226 55.7715ZM87.9209 47.3391L87.8149 47.3942L87.8153 47.395L87.9209 47.3391ZM89.7125 49.2501L89.6507 49.3524L89.6532 49.3538L89.7125 49.2501ZM95.0395 49.2501L95.0997 49.3533L95.1012 49.3524L95.0395 49.2501ZM96.8311 47.3391L96.9366 47.395L96.9371 47.3942L96.8311 47.3391ZM96.8311 41.5821L96.725 41.6372L96.7255 41.638L96.8311 41.5821ZM95.0395 39.6711L94.9793 39.7743V39.7743L95.0395 39.6711ZM89.7125 39.6711L89.6532 39.5674L89.6523 39.568L89.7125 39.6711ZM87.9209 41.5821L88.0265 41.638L88.0269 41.6372L87.9209 41.5821ZM97.0699 55.7715L97.1616 55.695L94.6295 52.6612L94.5378 52.7378L94.4461 52.8143L96.9782 55.848L97.0699 55.7715ZM94.5378 52.7378L94.5089 52.6219C93.8178 52.7947 93.1109 52.8811 92.3879 52.8811V53.0005V53.12C93.1301 53.12 93.8565 53.0312 94.5668 52.8536L94.5378 52.7378ZM92.3879 53.0005V52.8811C90.8468 52.8811 89.4338 52.5196 88.1465 51.7975L88.0881 51.9017L88.0297 52.0059C89.3542 52.7489 90.8077 53.12 92.3879 53.12V53.0005ZM88.0881 51.9017L88.1465 51.7975C86.859 51.0753 85.8392 50.0789 85.0854 48.807L84.9827 48.8679L84.8799 48.9288C85.655 50.2368 86.7055 51.263 88.0297 52.0059L88.0881 51.9017ZM84.9827 48.8679L85.0858 48.8076C84.333 47.5216 83.9555 46.0696 83.9555 44.4487H83.8361H83.7166C83.7166 46.1084 84.1036 47.6026 84.8796 48.9283L84.9827 48.8679ZM83.8361 44.4487H83.9555C83.9555 42.8439 84.3329 41.4081 85.0854 40.1381L84.9827 40.0772L84.8799 40.0163C84.1037 41.3262 83.7166 42.8047 83.7166 44.4487H83.8361ZM84.9827 40.0772L85.0858 40.1375C85.8396 38.8498 86.8594 37.8458 88.1465 37.1237L88.0881 37.0196L88.0297 36.9154C86.7051 37.6585 85.6546 38.6929 84.8796 40.0169L84.9827 40.0772ZM88.0881 37.0196L88.1465 37.1237C89.4338 36.4016 90.8468 36.0402 92.3879 36.0402V35.9207V35.8013C90.8077 35.8013 89.3542 36.1724 88.0297 36.9154L88.0881 37.0196ZM92.3879 35.9207V36.0402C93.9452 36.0402 95.3579 36.4017 96.6287 37.1234L96.6877 37.0196L96.7467 36.9157C95.4377 36.1723 93.9838 35.8013 92.3879 35.8013V35.9207ZM96.6877 37.0196L96.6293 37.1237C97.9162 37.8457 98.9278 38.8494 99.6656 40.1366L99.7693 40.0772L99.8729 40.0178C99.1137 38.6933 98.071 37.6586 96.7462 36.9154L96.6877 37.0196ZM99.7693 40.0772L99.6665 40.1381C100.419 41.4081 100.796 42.8439 100.796 44.4487H100.916H101.035C101.035 42.8047 100.648 41.3262 99.872 40.0163L99.7693 40.0772ZM100.916 44.4487H100.796C100.796 45.912 100.482 47.2465 99.8544 48.4546L99.9604 48.5096L100.066 48.5647C100.713 47.3202 101.035 45.9475 101.035 44.4487H100.916ZM99.9604 48.5096L99.8541 48.4551C99.2416 49.6487 98.4022 50.6211 97.3355 51.3741L97.4044 51.4717L97.4732 51.5693C98.5723 50.7935 99.437 49.7912 100.067 48.5641L99.9604 48.5096ZM97.4044 51.4717L97.3151 51.5511L101.137 55.8509L101.226 55.7715L101.316 55.6922L97.4936 51.3924L97.4044 51.4717ZM101.226 55.7715V55.6521H97.0699V55.7715V55.891H101.226V55.7715ZM87.2759 44.4487H87.1565C87.1565 45.5633 87.3746 46.5463 87.8149 47.3942L87.9209 47.3391L88.0269 47.2841C87.6072 46.4757 87.3954 45.5318 87.3954 44.4487H87.2759ZM87.9209 47.3391L87.8153 47.395C88.2551 48.2257 88.8672 48.879 89.6507 49.3524L89.7125 49.2501L89.7742 49.1479C89.0289 48.6976 88.4466 48.0769 88.0265 47.2832L87.9209 47.3391ZM89.7125 49.2501L89.6532 49.3538C90.4536 49.8112 91.3663 50.0384 92.3879 50.0384V49.919V49.7996C91.4029 49.7996 90.532 49.5809 89.7717 49.1464L89.7125 49.2501ZM92.3879 49.919V50.0384C93.4095 50.0384 94.3146 49.8112 95.0996 49.3533L95.0395 49.2501L94.9793 49.147C94.2355 49.5809 93.3729 49.7996 92.3879 49.7996V49.919ZM95.0395 49.2501L95.1012 49.3524C95.8847 48.879 96.4968 48.2257 96.9366 47.395L96.8311 47.3391L96.7255 47.2832C96.3053 48.0769 95.723 48.6976 94.9777 49.1479L95.0395 49.2501ZM96.8311 47.3391L96.9371 47.3942C97.3773 46.5463 97.5955 45.5633 97.5955 44.4487H97.476H97.3566C97.3566 45.5318 97.1448 46.4757 96.7251 47.2841L96.8311 47.3391ZM97.476 44.4487H97.5955C97.5955 43.3342 97.3773 42.3587 96.9366 41.5263L96.8311 41.5821L96.7255 41.638C97.1447 42.4299 97.3566 43.3655 97.3566 44.4487H97.476ZM96.8311 41.5821L96.9371 41.5271C96.4973 40.6801 95.8847 40.0259 95.0996 39.568L95.0395 39.6711L94.9793 39.7743C95.7231 40.2082 96.3049 40.828 96.7251 41.6372L96.8311 41.5821ZM95.0395 39.6711L95.0996 39.568C94.3146 39.11 93.4095 38.8828 92.3879 38.8828V39.0023V39.1217C93.3729 39.1217 94.2355 39.3404 94.9793 39.7743L95.0395 39.6711ZM92.3879 39.0023V38.8828C91.3663 38.8828 90.4536 39.11 89.6532 39.5674L89.7125 39.6711L89.7717 39.7748C90.532 39.3404 91.4029 39.1217 92.3879 39.1217V39.0023ZM89.7125 39.6711L89.6523 39.568C88.8673 40.0259 88.2547 40.6801 87.8149 41.5271L87.9209 41.5821L88.0269 41.6372C88.4471 40.828 89.0289 40.2082 89.7727 39.7743L89.7125 39.6711ZM87.9209 41.5821L87.8153 41.5263C87.3746 42.3587 87.1565 43.3342 87.1565 44.4487H87.2759H87.3954C87.3954 43.3655 87.6072 42.4299 88.0265 41.638L87.9209 41.5821ZM115.944 39.5995H116.063V39.48H115.944V39.5995ZM115.944 52.8333V52.9528H116.063V52.8333H115.944ZM112.576 52.8333H112.456V52.9528H112.576V52.8333ZM112.576 51.1612H112.695V50.8028L112.48 51.0895L112.576 51.1612ZM110.88 52.5228L110.93 52.6311L110.931 52.6306L110.88 52.5228ZM105.887 52.3556L105.829 52.4598L105.83 52.4607L105.887 52.3556ZM104 50.4206L103.894 50.4756L103.895 50.478L104 50.4206ZM103.331 39.5995V39.48H103.212V39.5995H103.331ZM106.675 39.5995H106.795V39.48H106.675V39.5995ZM107.464 49.3218L107.376 49.4025L107.377 49.4037L107.464 49.3218ZM111.787 49.3218L111.874 49.4037L111.875 49.4025L111.787 49.3218ZM112.576 39.5995V39.48H112.456V39.5995H112.576ZM115.944 39.5995H115.824V52.8333H115.944H116.063V39.5995H115.944ZM115.944 52.8333V52.7139H112.576V52.8333V52.9528H115.944V52.8333ZM112.576 52.8333H112.695V51.1612H112.576H112.456V52.8333H112.576ZM112.576 51.1612L112.48 51.0895C112.063 51.6461 111.513 52.0881 110.828 52.415L110.88 52.5228L110.931 52.6306C111.648 52.2885 112.229 51.8228 112.671 51.2328L112.576 51.1612ZM110.88 52.5228L110.829 52.4145C110.161 52.7251 109.43 52.8811 108.634 52.8811V53.0005V53.12C109.463 53.12 110.228 52.9575 110.93 52.6311L110.88 52.5228ZM108.634 53.0005V52.8811C107.616 52.8811 106.72 52.6697 105.944 52.2505L105.887 52.3556L105.83 52.4607C106.646 52.9013 107.582 53.12 108.634 53.12V53.0005ZM105.887 52.3556L105.946 52.2513C105.17 51.817 104.556 51.1888 104.105 50.3633L104 50.4206L103.895 50.478C104.367 51.3406 105.012 52.0023 105.829 52.4598L105.887 52.3556ZM104 50.4206L104.106 50.3657C103.671 49.526 103.451 48.5264 103.451 47.363H103.331H103.212C103.212 48.5565 103.438 49.5954 103.894 50.4756L104 50.4206ZM103.331 47.363H103.451V39.5995H103.331H103.212V47.363H103.331ZM103.331 39.5995V39.7189H106.675V39.5995V39.48H103.331V39.5995ZM106.675 39.5995H106.556V46.8852H106.675H106.795V39.5995H106.675ZM106.675 46.8852H106.556C106.556 47.9555 106.824 48.8004 107.376 49.4025L107.464 49.3218L107.552 49.2411C107.053 48.6966 106.795 47.9171 106.795 46.8852H106.675ZM107.464 49.3218L107.377 49.4037C107.929 49.9895 108.68 50.2773 109.614 50.2773V50.1579V50.0384C108.732 50.0384 108.049 49.7689 107.551 49.2399L107.464 49.3218ZM109.614 50.1579V50.2773C110.563 50.2773 111.322 49.9899 111.874 49.4037L111.787 49.3218L111.701 49.2399C111.202 49.7685 110.512 50.0384 109.614 50.0384V50.1579ZM111.787 49.3218L111.875 49.4025C112.427 48.8004 112.695 47.9555 112.695 46.8852H112.576H112.456C112.456 47.9171 112.199 48.6966 111.699 49.2411L111.787 49.3218ZM112.576 46.8852H112.695V39.5995H112.576H112.456V46.8852H112.576ZM112.576 39.5995V39.7189H115.944V39.5995V39.48H112.576V39.5995ZM119.172 42.6093L119.066 42.554L119.065 42.5553L119.172 42.6093ZM121.346 40.2205L121.284 40.1183L121.283 40.1188L121.346 40.2205ZM127.007 39.9817L126.95 40.0866L126.951 40.0871L127.007 39.9817ZM128.799 41.4866L128.703 41.5574L128.918 41.85V41.4866H128.799ZM128.799 39.5995V39.48H128.679V39.5995H128.799ZM132.167 39.5995H132.286V39.48H132.167V39.5995ZM132.167 52.8333V52.9528H132.286V52.8333H132.167ZM128.799 52.8333H128.679V52.9528H128.799V52.8333ZM128.799 50.8984H128.918V50.516L128.701 50.8304L128.799 50.8984ZM127.007 52.4511L127.063 52.5566L127.064 52.5561L127.007 52.4511ZM121.346 52.1883L121.282 52.2893L121.283 52.2898L121.346 52.1883ZM119.172 49.7757L119.065 49.8291L119.066 49.831L119.172 49.7757ZM128.321 44.1381L128.216 44.1949L128.217 44.1961L128.321 44.1381ZM127.031 42.8004L126.97 42.9034L126.973 42.9047L127.031 42.8004ZM123.567 42.7765L123.508 42.673V42.673L123.567 42.7765ZM122.277 44.1143L122.173 44.0553L122.173 44.0563L122.277 44.1143ZM122.277 48.2707L122.172 48.3264L122.174 48.3297L122.277 48.2707ZM123.567 49.6323L123.505 49.7345L123.507 49.7353L123.567 49.6323ZM127.031 49.6562L127.089 49.7605L127.092 49.7592L127.031 49.6562ZM128.321 48.3185L128.425 48.3765L128.426 48.3753L128.321 48.3185ZM118.384 46.1686H118.503C118.503 44.8468 118.763 43.6794 119.278 42.6634L119.172 42.6093L119.065 42.5553C118.53 43.6095 118.264 44.815 118.264 46.1686H118.384ZM119.172 42.6093L119.278 42.6647C119.81 41.6467 120.521 40.8674 121.408 40.3223L121.346 40.2205L121.283 40.1188C120.355 40.6885 119.617 41.5016 119.066 42.554L119.172 42.6093ZM121.346 40.2205L121.407 40.3228C122.312 39.7772 123.317 39.5039 124.427 39.5039V39.3845V39.265C123.276 39.265 122.227 39.5491 121.284 40.1183L121.346 40.2205ZM124.427 39.3845V39.5039C125.398 39.5039 126.238 39.6996 126.95 40.0866L127.007 39.9817L127.064 39.8767C126.311 39.4675 125.431 39.265 124.427 39.265V39.3845ZM127.007 39.9817L126.951 40.0871C127.686 40.4779 128.269 40.9684 128.703 41.5574L128.799 41.4866L128.895 41.4157C128.437 40.7945 127.825 40.2817 127.063 39.8762L127.007 39.9817ZM128.799 41.4866H128.918V39.5995H128.799H128.679V41.4866H128.799ZM128.799 39.5995V39.7189H132.167V39.5995V39.48H128.799V39.5995ZM132.167 39.5995H132.047V52.8333H132.167H132.286V39.5995H132.167ZM132.167 52.8333V52.7139H128.799V52.8333V52.9528H132.167V52.8333ZM128.799 52.8333H128.918V50.8984H128.799H128.679V52.8333H128.799ZM128.799 50.8984L128.701 50.8304C128.283 51.4339 127.701 51.9396 126.95 52.3461L127.007 52.4511L127.064 52.5561C127.842 52.1345 128.455 51.6051 128.897 50.9664L128.799 50.8984ZM127.007 52.4511L126.951 52.3457C126.223 52.7332 125.374 52.9289 124.403 52.9289V53.0483V53.1677C125.407 53.1677 126.295 52.9653 127.063 52.5566L127.007 52.4511ZM124.403 53.0483V52.9289C123.31 52.9289 122.313 52.6481 121.409 52.0869L121.346 52.1883L121.283 52.2898C122.226 52.8752 123.267 53.1677 124.403 53.1677V53.0483ZM121.346 52.1883L121.41 52.0874C120.521 51.5263 119.81 50.7385 119.278 49.7203L119.172 49.7757L119.066 49.831C119.616 50.8831 120.355 51.7038 121.282 52.2893L121.346 52.1883ZM119.172 49.7757L119.279 49.7223C118.763 48.6901 118.503 47.5065 118.503 46.1686H118.384H118.264C118.264 47.538 118.53 48.7591 119.065 49.8291L119.172 49.7757ZM128.799 46.2164H128.918C128.918 45.3887 128.756 44.6749 128.425 44.0801L128.321 44.1381L128.217 44.1961C128.523 44.748 128.679 45.4197 128.679 46.2164H128.799ZM128.321 44.1381L128.426 44.0813C128.098 43.4738 127.652 43.0107 127.089 42.6962L127.031 42.8004L126.973 42.9047C127.493 43.1953 127.907 43.624 128.216 44.1949L128.321 44.1381ZM127.031 42.8004L127.092 42.6975C126.532 42.3683 125.93 42.2032 125.287 42.2032V42.3227V42.4421C125.887 42.4421 126.447 42.5955 126.97 42.9034L127.031 42.8004ZM125.287 42.3227V42.2032C124.646 42.2032 124.052 42.3597 123.508 42.673L123.567 42.7765L123.627 42.88C124.134 42.5882 124.687 42.4421 125.287 42.4421V42.3227ZM123.567 42.7765L123.508 42.673C122.962 42.9874 122.517 43.4498 122.174 44.0553L122.277 44.1143L122.381 44.1732C122.706 43.6003 123.122 43.1708 123.627 42.88L123.567 42.7765ZM122.277 44.1143L122.173 44.0563C121.843 44.6507 121.68 45.3564 121.68 46.1686H121.8H121.919C121.919 45.3883 122.075 44.7244 122.382 44.1723L122.277 44.1143ZM121.8 46.1686H121.68C121.68 46.9811 121.843 47.7014 122.172 48.3264L122.277 48.2707L122.383 48.2151C122.075 47.6297 121.919 46.9487 121.919 46.1686H121.8ZM122.277 48.2707L122.174 48.3297C122.517 48.9348 122.961 49.4044 123.505 49.7345L123.567 49.6323L123.629 49.5302C123.123 49.2233 122.707 48.7851 122.381 48.2118L122.277 48.2707ZM123.567 49.6323L123.507 49.7353C124.066 50.0642 124.66 50.2295 125.287 50.2295V50.1101V49.9907C124.704 49.9907 124.152 49.8375 123.628 49.5294L123.567 49.6323ZM125.287 50.1101V50.2295C125.929 50.2295 126.53 50.073 127.089 49.7605L127.031 49.6562L126.973 49.552C126.449 49.8446 125.888 49.9907 125.287 49.9907V50.1101ZM127.031 49.6562L127.092 49.7592C127.652 49.4294 128.097 48.9676 128.425 48.3765L128.321 48.3185L128.217 48.2605C127.908 48.816 127.493 49.2461 126.97 49.5533L127.031 49.6562ZM128.321 48.3185L128.426 48.3753C128.756 47.7653 128.918 47.0442 128.918 46.2164H128.799H128.679C128.679 47.0129 128.523 47.6933 128.216 48.2617L128.321 48.3185ZM138.778 35.1563H138.897V35.0369H138.778V35.1563ZM138.778 52.8333V52.9528H138.897V52.8333H138.778ZM135.433 52.8333H135.314V52.9528H135.433V52.8333ZM135.433 35.1563V35.0369H135.314V35.1563H135.433ZM138.778 35.1563H138.658V52.8333H138.778H138.897V35.1563H138.778ZM138.778 52.8333V52.7139H135.433V52.8333V52.9528H138.778V52.8333ZM135.433 52.8333H135.553V35.1563H135.433H135.314V52.8333H135.433ZM135.433 35.1563V35.2758H138.778V35.1563V35.0369H135.433V35.1563ZM142.297 37.4734L142.212 37.558L142.216 37.5613L142.297 37.4734ZM142.297 34.6786L142.379 34.7648L142.379 34.7647L142.297 34.6786ZM145.235 34.6786L145.15 34.7631L145.154 34.7665L145.235 34.6786ZM145.235 37.4734L145.318 37.5597L145.318 37.5596L145.235 37.4734ZM145.426 39.5995H145.545V39.48H145.426V39.5995ZM145.426 52.8333V52.9528H145.545V52.8333H145.426ZM142.082 52.8333H141.962V52.9528H142.082V52.8333ZM142.082 39.5995V39.48H141.962V39.5995H142.082ZM143.778 38.0229V37.9034C143.216 37.9034 142.752 37.7297 142.378 37.3855L142.297 37.4734L142.216 37.5613C142.638 37.9498 143.161 38.1423 143.778 38.1423V38.0229ZM142.297 37.4734L142.381 37.389C142.022 37.0299 141.843 36.5909 141.843 36.0641H141.723H141.604C141.604 36.652 141.807 37.1525 142.212 37.5579L142.297 37.4734ZM141.723 36.0641H141.843C141.843 35.5373 142.022 35.1072 142.379 34.7648L142.297 34.6786L142.214 34.5923C141.807 34.9824 141.604 35.476 141.604 36.0641H141.723ZM142.297 34.6786L142.379 34.7647C142.754 34.4054 143.217 34.2247 143.778 34.2247V34.1053V33.9858C143.16 33.9858 142.636 34.1873 142.214 34.5924L142.297 34.6786ZM143.778 34.1053V34.2247C144.338 34.2247 144.793 34.4053 145.15 34.763L145.235 34.6786L145.319 34.5941C144.913 34.1874 144.395 33.9858 143.778 33.9858V34.1053ZM145.235 34.6786L145.154 34.7665C145.527 35.1094 145.713 35.5389 145.713 36.0641H145.832H145.952C145.952 35.4744 145.739 34.9803 145.316 34.5907L145.235 34.6786ZM145.832 36.0641H145.713C145.713 36.5893 145.527 37.0278 145.152 37.3873L145.235 37.4734L145.318 37.5596C145.739 37.1546 145.952 36.6536 145.952 36.0641H145.832ZM145.235 37.4734L145.152 37.3872C144.795 37.7297 144.34 37.9034 143.778 37.9034V38.0229V38.1423C144.394 38.1423 144.91 37.9497 145.318 37.5597L145.235 37.4734ZM145.426 39.5995H145.307V52.8333H145.426H145.545V39.5995H145.426ZM145.426 52.8333V52.7139H142.082V52.8333V52.9528H145.426V52.8333ZM142.082 52.8333H142.201V39.5995H142.082H141.962V52.8333H142.082ZM142.082 39.5995V39.7189H145.426V39.5995V39.48H142.082V39.5995ZM148.659 42.6093L148.553 42.554L148.552 42.5553L148.659 42.6093ZM150.856 40.2205L150.918 40.3228V40.3228L150.856 40.2205ZM156.398 39.9578L156.346 40.0651L156.347 40.0659L156.398 39.9578ZM158.261 41.4388L158.166 41.5101L158.381 41.7996V41.4388H158.261ZM158.261 35.1563V35.0369H158.142V35.1563H158.261ZM161.653 35.1563H161.773V35.0369H161.653V35.1563ZM161.653 52.8333V52.9528H161.773V52.8333H161.653ZM158.261 52.8333H158.142V52.9528H158.261V52.8333ZM158.261 50.8745H158.381V50.4631L158.161 50.8105L158.261 50.8745ZM156.518 52.4511L156.462 52.3457V52.3457L156.518 52.4511ZM150.856 52.1883L150.919 52.0869V52.0869L150.856 52.1883ZM148.659 49.7757L148.552 49.8291L148.553 49.831L148.659 49.7757ZM157.808 44.1381L157.702 44.1949L157.703 44.1961L157.808 44.1381ZM156.518 42.8004L156.457 42.9034L156.459 42.9047L156.518 42.8004ZM153.054 42.7765L152.994 42.673V42.673L153.054 42.7765ZM151.764 44.1143L151.66 44.0553L151.66 44.0563L151.764 44.1143ZM151.764 48.2707L151.658 48.3264L151.66 48.3297L151.764 48.2707ZM153.054 49.6323L152.992 49.7345L152.993 49.7353L153.054 49.6323ZM156.518 49.6562L156.576 49.7605L156.578 49.7592L156.518 49.6562ZM157.808 48.3185L157.912 48.3765L157.913 48.3753L157.808 48.3185ZM147.87 46.1686H147.99C147.99 44.8468 148.249 43.6794 148.765 42.6634L148.659 42.6093L148.552 42.5553C148.017 43.6095 147.751 44.815 147.751 46.1686H147.87ZM148.659 42.6093L148.764 42.6647C149.297 41.6473 150.014 40.868 150.918 40.3228L150.856 40.2205L150.794 40.1183C149.851 40.6879 149.103 41.5011 148.553 42.554L148.659 42.6093ZM150.856 40.2205L150.918 40.3228C151.822 39.7772 152.828 39.5039 153.938 39.5039V39.3845V39.265C152.786 39.265 151.738 39.5491 150.794 40.1183L150.856 40.2205ZM153.938 39.3845V39.5039C154.779 39.5039 155.581 39.6908 156.346 40.065L156.398 39.9578L156.451 39.8505C155.654 39.4604 154.816 39.265 153.938 39.265V39.3845ZM156.398 39.9578L156.347 40.0659C157.112 40.4248 157.717 40.9066 158.166 41.5101L158.261 41.4388L158.357 41.3675C157.882 40.7289 157.245 40.2233 156.449 39.8497L156.398 39.9578ZM158.261 41.4388H158.381V35.1563H158.261H158.142V41.4388H158.261ZM158.261 35.1563V35.2758H161.653V35.1563V35.0369H158.261V35.1563ZM161.653 35.1563H161.534V52.8333H161.653H161.773V35.1563H161.653ZM161.653 52.8333V52.7139H158.261V52.8333V52.9528H161.653V52.8333ZM158.261 52.8333H158.381V50.8745H158.261H158.142V52.8333H158.261ZM158.261 50.8745L158.161 50.8105C157.759 51.4444 157.194 51.9563 156.462 52.3457L156.518 52.4511L156.574 52.5566C157.339 52.1497 157.936 51.6105 158.362 50.9385L158.261 50.8745ZM156.518 52.4511L156.462 52.3457C155.733 52.7332 154.885 52.9289 153.914 52.9289V53.0483V53.1677C154.918 53.1677 155.805 52.9653 156.574 52.5566L156.518 52.4511ZM153.914 53.0483V52.9289C152.821 52.9289 151.823 52.6481 150.919 52.0869L150.856 52.1883L150.793 52.2898C151.736 52.8752 152.777 53.1677 153.914 53.1677V53.0483ZM150.856 52.1883L150.919 52.0869C150.015 51.5257 149.297 50.738 148.764 49.7203L148.659 49.7757L148.553 49.831C149.103 50.8836 149.85 51.7044 150.793 52.2898L150.856 52.1883ZM148.659 49.7757L148.765 49.7223C148.249 48.6901 147.99 47.5065 147.99 46.1686H147.87H147.751C147.751 47.538 148.017 48.7591 148.552 49.8291L148.659 49.7757ZM158.285 46.2164H158.405C158.405 45.3887 158.242 44.6749 157.912 44.0801L157.808 44.1381L157.703 44.1961C158.01 44.748 158.166 45.4197 158.166 46.2164H158.285ZM157.808 44.1381L157.913 44.0813C157.584 43.4738 157.139 43.0107 156.576 42.6962L156.518 42.8004L156.459 42.9047C156.979 43.1953 157.394 43.624 157.702 44.1949L157.808 44.1381ZM156.518 42.8004L156.578 42.6975C156.019 42.3683 155.416 42.2032 154.774 42.2032V42.3227V42.4421C155.373 42.4421 155.934 42.5955 156.457 42.9034L156.518 42.8004ZM154.774 42.3227V42.2032C154.132 42.2032 153.538 42.3597 152.994 42.673L153.054 42.7765L153.113 42.88C153.62 42.5882 154.173 42.4421 154.774 42.4421V42.3227ZM153.054 42.7765L152.994 42.673C152.448 42.9874 152.004 43.4498 151.66 44.0553L151.764 44.1143L151.868 44.1732C152.193 43.6003 152.608 43.1708 153.113 42.88L153.054 42.7765ZM151.764 44.1143L151.66 44.0563C151.329 44.6507 151.167 45.3564 151.167 46.1686H151.286H151.406C151.406 45.3883 151.562 44.7244 151.868 44.1723L151.764 44.1143ZM151.286 46.1686H151.167C151.167 46.9811 151.329 47.7014 151.658 48.3264L151.764 48.2707L151.87 48.2151C151.562 47.6297 151.406 46.9487 151.406 46.1686H151.286ZM151.764 48.2707L151.66 48.3297C152.003 48.9348 152.447 49.4044 152.992 49.7345L153.054 49.6323L153.116 49.5302C152.609 49.2233 152.193 48.7851 151.868 48.2118L151.764 48.2707ZM153.054 49.6323L152.993 49.7353C153.552 50.0642 154.146 50.2295 154.774 50.2295V50.1101V49.9907C154.191 49.9907 153.638 49.8375 153.114 49.5294L153.054 49.6323ZM154.774 50.1101V50.2295C155.415 50.2295 156.017 50.073 156.576 49.7605L156.518 49.6562L156.459 49.552C155.936 49.8446 155.374 49.9907 154.774 49.9907V50.1101ZM156.518 49.6562L156.578 49.7592C157.139 49.4294 157.584 48.9676 157.912 48.3765L157.808 48.3185L157.703 48.2605C157.394 48.816 156.979 49.2461 156.457 49.5533L156.518 49.6562ZM157.808 48.3185L157.913 48.3753C158.242 47.7653 158.405 47.0442 158.405 46.2164H158.285H158.166C158.166 47.0129 158.01 47.6933 157.702 48.2617L157.808 48.3185ZM164.848 42.6093L164.742 42.554L164.742 42.5553L164.848 42.6093ZM167.022 40.2205L166.96 40.1183L166.959 40.1188L167.022 40.2205ZM172.683 39.9817L172.626 40.0866L172.627 40.0871L172.683 39.9817ZM174.475 41.4866L174.379 41.5574L174.594 41.85V41.4866H174.475ZM174.475 39.5995V39.48H174.355V39.5995H174.475ZM177.843 39.5995H177.963V39.48H177.843V39.5995ZM177.843 52.8333V52.9528H177.963V52.8333H177.843ZM174.475 52.8333H174.355V52.9528H174.475V52.8333ZM174.475 50.8984H174.594V50.516L174.377 50.8304L174.475 50.8984ZM172.683 52.4511L172.739 52.5566L172.74 52.5561L172.683 52.4511ZM167.022 52.1883L166.958 52.2893L166.959 52.2898L167.022 52.1883ZM164.848 49.7757L164.741 49.8291L164.742 49.831L164.848 49.7757ZM173.997 44.1381L173.892 44.1949L173.893 44.1961L173.997 44.1381ZM172.707 42.8004L172.647 42.9034L172.649 42.9047L172.707 42.8004ZM169.243 42.7765L169.184 42.673V42.673L169.243 42.7765ZM167.954 44.1143L167.85 44.0553L167.849 44.0563L167.954 44.1143ZM167.954 48.2707L167.848 48.3264L167.85 48.3297L167.954 48.2707ZM169.243 49.6323L169.182 49.7345L169.183 49.7353L169.243 49.6323ZM172.707 49.6562L172.765 49.7605L172.768 49.7592L172.707 49.6562ZM173.997 48.3185L174.102 48.3765L174.102 48.3753L173.997 48.3185ZM164.06 46.1686H164.179C164.179 44.8468 164.439 43.6794 164.955 42.6634L164.848 42.6093L164.742 42.5553C164.206 43.6095 163.94 44.815 163.94 46.1686H164.06ZM164.848 42.6093L164.954 42.6647C165.486 41.6467 166.197 40.8674 167.084 40.3223L167.022 40.2205L166.959 40.1188C166.032 40.6885 165.293 41.5016 164.742 42.554L164.848 42.6093ZM167.022 40.2205L167.084 40.3228C167.988 39.7772 168.993 39.5039 170.103 39.5039V39.3845V39.265C168.952 39.265 167.903 39.5491 166.96 40.1183L167.022 40.2205ZM170.103 39.3845V39.5039C171.075 39.5039 171.914 39.6996 172.626 40.0866L172.683 39.9817L172.74 39.8767C171.987 39.4675 171.107 39.265 170.103 39.265V39.3845ZM172.683 39.9817L172.627 40.0871C173.362 40.4779 173.945 40.9684 174.379 41.5574L174.475 41.4866L174.571 41.4157C174.113 40.7945 173.502 40.2817 172.739 39.8762L172.683 39.9817ZM174.475 41.4866H174.594V39.5995H174.475H174.355V41.4866H174.475ZM174.475 39.5995V39.7189H177.843V39.5995V39.48H174.475V39.5995ZM177.843 39.5995H177.724V52.8333H177.843H177.963V39.5995H177.843ZM177.843 52.8333V52.7139H174.475V52.8333V52.9528H177.843V52.8333ZM174.475 52.8333H174.594V50.8984H174.475H174.355V52.8333H174.475ZM174.475 50.8984L174.377 50.8304C173.959 51.4339 173.377 51.9396 172.626 52.3461L172.683 52.4511L172.74 52.5561C173.519 52.1345 174.131 51.6051 174.573 50.9664L174.475 50.8984ZM172.683 52.4511L172.627 52.3457C171.899 52.7332 171.051 52.9289 170.08 52.9289V53.0483V53.1677C171.083 53.1677 171.971 52.9653 172.739 52.5566L172.683 52.4511ZM170.08 53.0483V52.9289C168.986 52.9289 167.989 52.6481 167.085 52.0869L167.022 52.1883L166.959 52.2898C167.902 52.8752 168.943 53.1677 170.08 53.1677V53.0483ZM167.022 52.1883L167.086 52.0874C166.197 51.5263 165.487 50.7385 164.954 49.7203L164.848 49.7757L164.742 49.831C165.293 50.8831 166.031 51.7038 166.958 52.2893L167.022 52.1883ZM164.848 49.7757L164.955 49.7223C164.439 48.6901 164.179 47.5065 164.179 46.1686H164.06H163.94C163.94 47.538 164.206 48.7591 164.741 49.8291L164.848 49.7757ZM174.475 46.2164H174.594C174.594 45.3887 174.432 44.6749 174.102 44.0801L173.997 44.1381L173.893 44.1961C174.199 44.748 174.355 45.4197 174.355 46.2164H174.475ZM173.997 44.1381L174.102 44.0813C173.774 43.4738 173.328 43.0107 172.765 42.6962L172.707 42.8004L172.649 42.9047C173.169 43.1953 173.583 43.624 173.892 44.1949L173.997 44.1381ZM172.707 42.8004L172.768 42.6975C172.208 42.3683 171.606 42.2032 170.963 42.2032V42.3227V42.4421C171.563 42.4421 172.123 42.5955 172.647 42.9034L172.707 42.8004ZM170.963 42.3227V42.2032C170.322 42.2032 169.728 42.3597 169.184 42.673L169.243 42.7765L169.303 42.88C169.81 42.5882 170.363 42.4421 170.963 42.4421V42.3227ZM169.243 42.7765L169.184 42.673C168.638 42.9874 168.193 43.4498 167.85 44.0553L167.954 44.1143L168.057 44.1732C168.383 43.6003 168.798 43.1708 169.303 42.88L169.243 42.7765ZM167.954 44.1143L167.849 44.0563C167.519 44.6507 167.356 45.3564 167.356 46.1686H167.476H167.595C167.595 45.3883 167.751 44.7244 168.058 44.1723L167.954 44.1143ZM167.476 46.1686H167.356C167.356 46.9811 167.519 47.7014 167.848 48.3264L167.954 48.2707L168.059 48.2151C167.751 47.6297 167.595 46.9487 167.595 46.1686H167.476ZM167.954 48.2707L167.85 48.3297C168.193 48.9348 168.637 49.4044 169.182 49.7345L169.243 49.6323L169.305 49.5302C168.799 49.2233 168.383 48.7851 168.057 48.2118L167.954 48.2707ZM169.243 49.6323L169.183 49.7353C169.742 50.0642 170.336 50.2295 170.963 50.2295V50.1101V49.9907C170.38 49.9907 169.828 49.8375 169.304 49.5294L169.243 49.6323ZM170.963 50.1101V50.2295C171.605 50.2295 172.206 50.073 172.765 49.7605L172.707 49.6562L172.649 49.552C172.125 49.8446 171.564 49.9907 170.963 49.9907V50.1101ZM172.707 49.6562L172.768 49.7592C173.328 49.4294 173.773 48.9676 174.102 48.3765L173.997 48.3185L173.893 48.2605C173.584 48.816 173.169 49.2461 172.647 49.5533L172.707 49.6562ZM173.997 48.3185L174.102 48.3753C174.432 47.7653 174.594 47.0442 174.594 46.2164H174.475H174.355C174.355 47.0129 174.199 47.6933 173.892 48.2617L173.997 48.3185ZM181.038 42.6093L180.932 42.554L180.931 42.5553L181.038 42.6093ZM183.235 40.2205L183.297 40.3228V40.3228L183.235 40.2205ZM188.777 39.9578L188.725 40.0651L188.727 40.0659L188.777 39.9578ZM190.641 41.4388L190.545 41.5101L190.76 41.7996V41.4388H190.641ZM190.641 35.1563V35.0369H190.521V35.1563H190.641ZM194.033 35.1563H194.152V35.0369H194.033V35.1563ZM194.033 52.8333V52.9528H194.152V52.8333H194.033ZM190.641 52.8333H190.521V52.9528H190.641V52.8333ZM190.641 50.8745H190.76V50.4631L190.54 50.8105L190.641 50.8745ZM188.897 52.4511L188.841 52.3457V52.3457L188.897 52.4511ZM183.235 52.1883L183.298 52.0869V52.0869L183.235 52.1883ZM181.038 49.7757L180.931 49.8291L180.932 49.831L181.038 49.7757ZM190.187 44.1381L190.082 44.1949L190.082 44.1961L190.187 44.1381ZM188.897 42.8004L188.836 42.9034L188.839 42.9047L188.897 42.8004ZM185.433 42.7765L185.373 42.673V42.673L185.433 42.7765ZM184.143 44.1143L184.039 44.0553L184.039 44.0563L184.143 44.1143ZM184.143 48.2707L184.037 48.3264L184.039 48.3297L184.143 48.2707ZM185.433 49.6323L185.371 49.7345L185.373 49.7353L185.433 49.6323ZM188.897 49.6562L188.955 49.7605L188.957 49.7592L188.897 49.6562ZM190.187 48.3185L190.291 48.3765L190.292 48.3753L190.187 48.3185ZM180.249 46.1686H180.369C180.369 44.8468 180.628 43.6794 181.144 42.6634L181.038 42.6093L180.931 42.5553C180.396 43.6095 180.13 44.815 180.13 46.1686H180.249ZM181.038 42.6093L181.144 42.6647C181.676 41.6473 182.394 40.868 183.297 40.3228L183.235 40.2205L183.174 40.1183C182.23 40.6879 181.483 41.5011 180.932 42.554L181.038 42.6093ZM183.235 40.2205L183.297 40.3228C184.201 39.7772 185.207 39.5039 186.317 39.5039V39.3845V39.265C185.166 39.265 184.117 39.5491 183.174 40.1183L183.235 40.2205ZM186.317 39.3845V39.5039C187.158 39.5039 187.961 39.6908 188.725 40.065L188.777 39.9578L188.83 39.8505C188.033 39.4604 187.195 39.265 186.317 39.265V39.3845ZM188.777 39.9578L188.727 40.0659C189.491 40.4248 190.096 40.9066 190.545 41.5101L190.641 41.4388L190.736 41.3675C190.262 40.7289 189.624 40.2233 188.828 39.8497L188.777 39.9578ZM190.641 41.4388H190.76V35.1563H190.641H190.521V41.4388H190.641ZM190.641 35.1563V35.2758H194.033V35.1563V35.0369H190.641V35.1563ZM194.033 35.1563H193.913V52.8333H194.033H194.152V35.1563H194.033ZM194.033 52.8333V52.7139H190.641V52.8333V52.9528H194.033V52.8333ZM190.641 52.8333H190.76V50.8745H190.641H190.521V52.8333H190.641ZM190.641 50.8745L190.54 50.8105C190.138 51.4444 189.573 51.9563 188.841 52.3457L188.897 52.4511L188.953 52.5566C189.718 52.1497 190.315 51.6105 190.741 50.9385L190.641 50.8745ZM188.897 52.4511L188.841 52.3457C188.112 52.7332 187.264 52.9289 186.293 52.9289V53.0483V53.1677C187.297 53.1677 188.184 52.9653 188.953 52.5566L188.897 52.4511ZM186.293 53.0483V52.9289C185.2 52.9289 184.203 52.6481 183.298 52.0869L183.235 52.1883L183.172 52.2898C184.115 52.8752 185.157 53.1677 186.293 53.1677V53.0483ZM183.235 52.1883L183.298 52.0869C182.394 51.5257 181.676 50.738 181.144 49.7203L181.038 49.7757L180.932 49.831C181.482 50.8836 182.229 51.7044 183.172 52.2898L183.235 52.1883ZM181.038 49.7757L181.145 49.7223C180.628 48.6901 180.369 47.5065 180.369 46.1686H180.249H180.13C180.13 47.538 180.396 48.7591 180.931 49.8291L181.038 49.7757ZM190.664 46.2164H190.784C190.784 45.3887 190.622 44.6749 190.291 44.0801L190.187 44.1381L190.082 44.1961C190.389 44.748 190.545 45.4197 190.545 46.2164H190.664ZM190.187 44.1381L190.292 44.0813C189.963 43.4738 189.518 43.0107 188.955 42.6962L188.897 42.8004L188.839 42.9047C189.359 43.1953 189.773 43.624 190.082 44.1949L190.187 44.1381ZM188.897 42.8004L188.957 42.6975C188.398 42.3683 187.796 42.2032 187.153 42.2032V42.3227V42.4421C187.753 42.4421 188.313 42.5955 188.836 42.9034L188.897 42.8004ZM187.153 42.3227V42.2032C186.512 42.2032 185.918 42.3597 185.373 42.673L185.433 42.7765L185.493 42.88C186 42.5882 186.552 42.4421 187.153 42.4421V42.3227ZM185.433 42.7765L185.373 42.673C184.827 42.9874 184.383 43.4498 184.039 44.0553L184.143 44.1143L184.247 44.1732C184.572 43.6003 184.988 43.1708 185.493 42.88L185.433 42.7765ZM184.143 44.1143L184.039 44.0563C183.708 44.6507 183.546 45.3564 183.546 46.1686H183.665H183.785C183.785 45.3883 183.941 44.7244 184.248 44.1723L184.143 44.1143ZM183.665 46.1686H183.546C183.546 46.9811 183.709 47.7014 184.037 48.3264L184.143 48.2707L184.249 48.2151C183.941 47.6297 183.785 46.9487 183.785 46.1686H183.665ZM184.143 48.2707L184.039 48.3297C184.383 48.9348 184.826 49.4044 185.371 49.7345L185.433 49.6323L185.495 49.5302C184.989 49.2233 184.572 48.7851 184.247 48.2118L184.143 48.2707ZM185.433 49.6323L185.373 49.7353C185.932 50.0642 186.526 50.2295 187.153 50.2295V50.1101V49.9907C186.57 49.9907 186.017 49.8375 185.494 49.5294L185.433 49.6323ZM187.153 50.1101V50.2295C187.794 50.2295 188.396 50.073 188.955 49.7605L188.897 49.6562L188.839 49.552C188.315 49.8446 187.754 49.9907 187.153 49.9907V50.1101ZM188.897 49.6562L188.957 49.7592C189.518 49.4294 189.963 48.9676 190.291 48.3765L190.187 48.3185L190.082 48.2605C189.774 48.816 189.359 49.2461 188.836 49.5533L188.897 49.6562ZM190.187 48.3185L190.292 48.3753C190.622 47.7653 190.784 47.0442 190.784 46.2164H190.664H190.545C190.545 47.0129 190.389 47.6933 190.082 48.2617L190.187 48.3185ZM209.506 47.148V47.2674H209.607L209.623 47.1676L209.506 47.148ZM199.831 47.148V47.0286H199.704L199.712 47.1558L199.831 47.148ZM200.81 49.4412L200.728 49.528V49.528L200.81 49.4412ZM205.66 48.6768V48.5574H205.585L205.553 48.6241L205.66 48.6768ZM209.267 48.6768L209.381 48.7112L209.427 48.5574H209.267V48.6768ZM207.069 51.83L207.141 51.9256L207.142 51.9249L207.069 51.83ZM199.64 52.2122L199.581 52.316L199.583 52.317L199.64 52.2122ZM197.275 49.7996L197.17 49.8562L197.171 49.8574L197.275 49.7996ZM197.275 42.6093L197.17 42.5527V42.5527L197.275 42.6093ZM199.616 40.2205L199.674 40.3249V40.3249L199.616 40.2205ZM206.448 40.1967L206.391 40.3014L206.391 40.3018L206.448 40.1967ZM208.765 42.4899L208.66 42.5473L208.661 42.5486L208.765 42.4899ZM206.137 45.1175V45.237H206.259L206.257 45.1155L206.137 45.1175ZM205.206 42.9438L205.125 43.0317L205.128 43.0339L205.206 42.9438ZM200.858 42.9438L200.939 43.0318L200.94 43.0306L200.858 42.9438ZM199.831 45.1175L199.712 45.1032L199.696 45.237H199.831V45.1175ZM209.601 45.9058H209.482C209.482 46.3461 209.45 46.7535 209.388 47.1284L209.506 47.148L209.623 47.1676C209.688 46.7781 209.721 46.3574 209.721 45.9058H209.601ZM209.506 47.148V47.0286H199.831V47.148V47.2674H209.506V47.148ZM199.831 47.148L199.712 47.1558C199.777 48.1509 200.113 48.9459 200.728 49.528L200.81 49.4412L200.893 49.3545C200.329 48.8218 200.012 48.0879 199.95 47.1402L199.831 47.148ZM200.81 49.4412L200.728 49.528C201.342 50.1081 202.104 50.3968 203.008 50.3968V50.2773V50.1579C202.16 50.1579 201.458 49.8891 200.893 49.3545L200.81 49.4412ZM203.008 50.2773V50.3968C203.647 50.3968 204.2 50.2595 204.664 49.9795C205.129 49.6992 205.496 49.2804 205.767 48.7296L205.66 48.6768L205.553 48.6241C205.298 49.1402 204.96 49.5217 204.541 49.7749C204.121 50.0284 203.612 50.1579 203.008 50.1579V50.2773ZM205.66 48.6768V48.7963H209.267V48.6768V48.5574H205.66V48.6768ZM209.267 48.6768L209.152 48.6425C208.778 49.8918 208.06 50.9219 206.997 51.7351L207.069 51.83L207.142 51.9249C208.244 51.0819 208.992 50.0099 209.381 48.7112L209.267 48.6768ZM207.069 51.83L206.997 51.7345C205.938 52.5287 204.635 52.9289 203.08 52.9289V53.0483V53.1677C204.678 53.1677 206.034 52.7557 207.141 51.9256L207.069 51.83ZM203.08 53.0483V52.9289C201.824 52.9289 200.697 52.6543 199.697 52.1074L199.64 52.2122L199.583 52.317C200.621 52.8849 201.788 53.1677 203.08 53.1677V53.0483ZM199.64 52.2122L199.699 52.1085C198.715 51.5463 197.943 50.7582 197.38 49.7417L197.275 49.7996L197.171 49.8574C197.754 50.9112 198.558 51.7315 199.581 52.3159L199.64 52.2122ZM197.275 49.7996L197.38 49.7429C196.834 48.7277 196.558 47.5533 196.558 46.2164H196.439H196.32C196.32 47.5868 196.602 48.8012 197.17 49.8562L197.275 49.7996ZM196.439 46.2164H196.558C196.558 44.8633 196.834 43.681 197.38 42.6659L197.275 42.6093L197.17 42.5527C196.602 43.6079 196.32 44.8303 196.32 46.2164H196.439ZM197.275 42.6093L197.38 42.6659C197.927 41.6504 198.691 40.871 199.674 40.3249L199.616 40.2205L199.558 40.1161C198.534 40.6849 197.738 41.498 197.17 42.5527L197.275 42.6093ZM199.616 40.2205L199.674 40.3249C200.657 39.7787 201.791 39.5039 203.08 39.5039V39.3845V39.265C201.756 39.265 200.581 39.5476 199.558 40.1161L199.616 40.2205ZM203.08 39.3845V39.5039C204.32 39.5039 205.423 39.7707 206.391 40.3014L206.448 40.1967L206.505 40.0919C205.498 39.5397 204.356 39.265 203.08 39.265V39.3845ZM206.448 40.1967L206.391 40.3018C207.375 40.8324 208.13 41.5804 208.66 42.5473L208.765 42.4899L208.87 42.4325C208.317 41.4246 207.528 40.6438 206.505 40.0915L206.448 40.1967ZM208.765 42.4899L208.661 42.5486C209.207 43.5157 209.482 44.6336 209.482 45.9058H209.601H209.721C209.721 44.5982 209.438 43.4388 208.869 42.4312L208.765 42.4899ZM206.137 45.1175L206.257 45.1155C206.24 44.1636 205.919 43.4048 205.284 42.8536L205.206 42.9438L205.128 43.0339C205.703 43.5338 206.003 44.2241 206.018 45.1196L206.137 45.1175ZM205.206 42.9438L205.287 42.8558C204.673 42.2917 203.902 42.0121 202.984 42.0121V42.1316V42.251C203.85 42.251 204.56 42.5129 205.125 43.0317L205.206 42.9438ZM202.984 42.1316V42.0121C202.112 42.0121 201.373 42.293 200.776 42.8569L200.858 42.9438L200.94 43.0306C201.49 42.5116 202.168 42.251 202.984 42.251V42.1316ZM200.858 42.9438L200.778 42.8557C200.179 43.4041 199.827 44.1571 199.712 45.1032L199.831 45.1175L199.95 45.1319C200.058 44.2307 200.391 43.5344 200.939 43.0318L200.858 42.9438ZM199.831 45.1175V45.237H206.137V45.1175V44.9981H199.831V45.1175Z" fill="#B5B5B5" mask="url(#path-7-outside-3_29_47)"/>
<path d="M66.5 6V58.5" stroke="white" stroke-width="3"/>
<defs>
<clipPath id="clip0_29_47">
<rect width="57" height="57" rx="4.275" fill="white"/>
</clipPath>
</defs>
</svg>
